<svg width="57" height="56" viewBox="0 0 57 56" fill="none" xmlns="http://www.w3.org/2000/svg">
<g clip-path="url(#clip0_14302_1052)">
<path d="M18.86 45.66C13.45 45.66 6.25 45.2 6.25 41.2C6.25 36.14 12.14 31.71 18.86 31.71C25.58 31.71 31.47 36.14 31.47 41.2C31.47 45.19 24.27 45.66 18.86 45.66ZM18.86 33.29C16.08 33.29 13.26 34.17 11.12 35.71C8.99 37.24 7.82 39.19 7.82 41.2C7.82 42.27 9.25 44.08 18.85 44.08C28.45 44.08 29.88 42.28 29.88 41.2C29.88 39.2 28.71 37.25 26.58 35.71C24.44 34.17 21.62 33.29 18.84 33.29H18.86Z" fill="#3D6D4A"/>
<path d="M5.60995 43.81H4.47995C4.18724 43.81 3.94995 44.0473 3.94995 44.34V45.38C3.94995 45.6727 4.18724 45.91 4.47995 45.91H5.60995C5.90266 45.91 6.13995 45.6727 6.13995 45.38V44.34C6.13995 44.0473 5.90266 43.81 5.60995 43.81Z" fill="#3D6D4A"/>
<path d="M23.26 50.28H22.13C21.8373 50.28 21.6 50.5173 21.6 50.81V51.85C21.6 52.1427 21.8373 52.38 22.13 52.38H23.26C23.5527 52.38 23.79 52.1427 23.79 51.85V50.81C23.79 50.5173 23.5527 50.28 23.26 50.28Z" fill="#3D6D4A"/>
<path d="M27.7299 46.73H26.5999C26.3072 46.73 26.0699 46.9673 26.0699 47.26V48.3C26.0699 48.5927 26.3072 48.83 26.5999 48.83H27.7299C28.0227 48.83 28.2599 48.5927 28.2599 48.3V47.26C28.2599 46.9673 28.0227 46.73 27.7299 46.73Z" fill="#3D6D4A"/>
<path d="M37.49 48.63H36.36C36.0672 48.63 35.83 48.8673 35.83 49.16V50.2C35.83 50.4927 36.0672 50.73 36.36 50.73H37.49C37.7827 50.73 38.02 50.4927 38.02 50.2V49.16C38.02 48.8673 37.7827 48.63 37.49 48.63Z" fill="#3D6D4A"/>
<path d="M45.93 43.81H44.8C44.5073 43.81 44.27 44.0473 44.27 44.34V45.38C44.27 45.6727 44.5073 45.91 44.8 45.91H45.93C46.2227 45.91 46.46 45.6727 46.46 45.38V44.34C46.46 44.0473 46.2227 43.81 45.93 43.81Z" fill="#3D6D4A"/>
<path d="M43.08 14.36H41.95C41.6573 14.36 41.42 14.5973 41.42 14.89V15.93C41.42 16.2227 41.6573 16.46 41.95 16.46H43.08C43.3728 16.46 43.61 16.2227 43.61 15.93V14.89C43.61 14.5973 43.3728 14.36 43.08 14.36Z" fill="#3D6D4A"/>
<path d="M39.64 12.26H38.51C38.2173 12.26 37.98 12.4973 37.98 12.79V13.83C37.98 14.1227 38.2173 14.36 38.51 14.36H39.64C39.9327 14.36 40.17 14.1227 40.17 13.83V12.79C40.17 12.4973 39.9327 12.26 39.64 12.26Z" fill="#3D6D4A"/>
<path d="M14.9 35.87H13.77C13.4773 35.87 13.24 36.1073 13.24 36.4V37.44C13.24 37.7327 13.4773 37.97 13.77 37.97H14.9C15.1927 37.97 15.43 37.7327 15.43 37.44V36.4C15.43 36.1073 15.1927 35.87 14.9 35.87Z" fill="#3D6D4A"/>
<path d="M12.54 39.82H11.41C11.1173 39.82 10.88 40.0573 10.88 40.35V41.39C10.88 41.6827 11.1173 41.92 11.41 41.92H12.54C12.8327 41.92 13.07 41.6827 13.07 41.39V40.35C13.07 40.0573 12.8327 39.82 12.54 39.82Z" fill="#3D6D4A"/>
<path d="M50.91 42.21C48.96 42.21 44.33 41.72 40.22 41.28C37.14 40.95 34.22 40.64 33.36 40.64C31.65 40.64 31.11 40.98 31.1 40.98C31.13 40.96 31.14 40.95 31.14 40.95L30.11 39.75C30.3 39.59 31.09 39.06 33.35 39.06C34.3 39.06 37.12 39.36 40.38 39.71C44.52 40.15 49.67 40.7 51.21 40.63C51.37 40.63 51.39 40.58 51.41 40.56C51.81 39.85 50.82 37.02 49.63 34.83C49.58 34.73 49.55 34.62 49.54 34.51C49.52 34.18 49 26.48 49.65 23.15C49.75 22.64 49.87 22.16 49.99 21.69C50.29 20.46 50.58 19.29 50.19 18.84C49.99 18.61 49.35 18.25 47.24 18.45C45.47 18.62 44.46 18.77 43.57 18.9C41.78 19.17 40.57 19.35 35.2 19.37C35.18 19.37 35.16 19.37 35.14 19.37H34.1C34.1 19.37 34.06 19.37 34.04 19.37C28.67 19.35 27.45 19.17 25.67 18.9C24.78 18.77 23.76 18.61 22 18.45C19.9 18.25 19.25 18.61 19.05 18.84C18.66 19.29 18.95 20.46 19.25 21.69C19.37 22.16 19.49 22.65 19.59 23.15C20.03 25.37 19.95 29.49 19.81 32.55C19.79 32.99 19.42 33.33 18.99 33.3C18.55 33.28 18.22 32.91 18.24 32.48C18.35 30.04 18.47 25.63 18.05 23.46C17.96 22.99 17.84 22.52 17.73 22.07C17.33 20.43 16.94 18.88 17.87 17.81C18.61 16.96 19.93 16.67 22.16 16.88C23.97 17.05 25 17.21 25.92 17.34C27.7 17.61 28.89 17.78 34.64 17.79C40.39 17.79 41.58 17.6 43.36 17.34C44.27 17.2 45.31 17.05 47.12 16.88C49.35 16.67 50.68 16.96 51.41 17.81C52.33 18.88 51.95 20.43 51.55 22.07C51.44 22.52 51.32 22.99 51.23 23.46C50.67 26.33 51.06 33.09 51.13 34.24C51.87 35.65 53.79 39.6 52.81 41.34C52.51 41.87 51.98 42.18 51.31 42.21C51.2 42.21 51.07 42.21 50.93 42.21H50.91Z" fill="#3D6D4A"/>
<path d="M50.32 35.23C50.2 35.23 50.08 35.2 49.97 35.15L47.86 34.11C47.47 33.92 47.31 33.44 47.5 33.05C47.69 32.66 48.17 32.5 48.56 32.69L50.67 33.73C51.06 33.92 51.22 34.4 51.03 34.79C50.89 35.07 50.61 35.23 50.32 35.23Z" fill="#3D6D4A"/>
<path d="M48.05 17.96C48.05 17.96 47.95 17.96 47.9 17.95C47.47 17.87 47.19 17.46 47.27 17.03C47.28 16.96 47.51 15.54 46.5 14.53C46.34 14.37 46.1 14.11 45.79 13.79C43.77 11.66 37.64 5.19 34.46 5.19C31.28 5.19 25.15 11.66 23.13 13.79C22.82 14.11 22.58 14.37 22.42 14.53C21.41 15.54 21.64 16.97 21.65 17.03C21.72 17.46 21.44 17.87 21.01 17.94C20.58 18.02 20.17 17.74 20.1 17.31C20.08 17.22 19.7 15.02 21.3 13.41C21.45 13.26 21.68 13.01 21.98 12.7C25.99 8.47 31.04 3.61 34.46 3.61C37.88 3.61 42.92 8.47 46.94 12.7C47.24 13.01 47.47 13.26 47.62 13.41C49.23 15.02 48.84 17.21 48.82 17.31C48.75 17.69 48.42 17.96 48.04 17.96H48.05Z" fill="#3D6D4A"/>
</g>
<defs>
<clipPath id="clip0_14302_1052">
<rect width="56" height="56" fill="white" transform="translate(0.5)"/>
</clipPath>
</defs>
</svg>
