<svg width="57" height="56" viewBox="0 0 57 56" fill="none" xmlns="http://www.w3.org/2000/svg">
<g clip-path="url(#clip0_14302_1533)">
<path d="M52.7 32.16C52.64 32.16 52.59 32.16 52.48 32.22C52.42 32.22 52.37 32.28 52.31 32.28C52.25 32.28 52.2 32.34 52.14 32.34C52.03 32.4 51.86 32.51 51.69 32.62C51.52 32.73 51.41 32.84 51.24 33.01C51.18 33.07 51.13 33.18 51.02 33.23C50.96 33.34 50.91 33.4 50.8 33.51C50.74 33.62 50.69 33.73 50.63 33.79C50.57 33.9 50.52 34.01 50.46 34.13C50.35 34.35 50.29 34.58 50.24 34.86C50.24 34.97 50.18 35.08 50.18 35.25V35.86V36.2C50.18 36.42 50.12 36.59 50.12 36.76V36.87C50.12 36.91 50.1 36.9467 50.06 36.98C50.06 37.04 50 37.15 50 37.2C50 37.25 49.94 37.31 49.94 37.37C49.88 37.43 49.88 37.48 49.88 37.54C49.82 37.65 49.77 37.71 49.71 37.76L49.65 37.82C46.97 39.38 44.01 40.45 41.32 41.17C41.54 38.15 40.59 34.52 37.13 32.23C30.26 27.65 27.69 25.02 27.63 25.02L27.29 24.68L26.51 20.71L29.18 3.67L27.9 4.56C26.17 5.79 24.99 8.19 24.27 10.82C20.02 12.89 19.97 20.26 19.97 21.38L19.02 23.95L17.9 25.07C17.9 25.07 15.33 27.7 8.39998 32.28C4.20998 35.19 3.47998 40.49 4.93998 44.24C6.21998 47.48 8.84998 49.32 11.98 49.32C12.37 49.32 12.76 49.26 13.15 49.21C14.1 49.71 15.16 49.94 16.22 49.94C17.39 49.94 18.62 49.66 19.74 49.05C20.58 49.61 21.58 49.94 22.76 49.94C23.94 49.94 24.94 49.6 25.83 49.05C27 49.66 28.23 49.94 29.41 49.94C30.47 49.94 31.53 49.72 32.48 49.21C32.7 49.27 32.98 49.27 33.21 49.27C34.38 50.44 35.89 51.5 37.62 52.01C38.4 52.23 39.13 52.35 39.91 52.35C41.53 52.35 43.15 51.85 44.72 50.84C47.57 49.05 49.53 46.31 50.36 42.96C50.86 40.89 50.81 39.22 50.75 38.6L50.81 38.54C50.87 38.43 50.92 38.26 50.98 38.09C51.04 38.03 51.04 37.92 51.04 37.81C51.04 37.7 51.1 37.64 51.1 37.53C51.1 37.42 51.16 37.31 51.16 37.19V36.85C51.16 36.63 51.16 36.4 51.1 36.18C51.1 36.07 51.04 35.96 51.04 35.84V35.67C51.04 35.61 51.04 35.56 50.98 35.5C50.98 35.39 50.98 35.28 50.92 35.16V34.82C50.92 34.6 50.92 34.37 50.98 34.21C50.98 34.1 51.04 33.99 51.04 33.93C51.1 33.82 51.1 33.71 51.15 33.65C51.21 33.54 51.21 33.48 51.26 33.37C51.32 33.26 51.37 33.2 51.43 33.09C51.54 32.92 51.65 32.81 51.77 32.64C51.88 32.53 51.99 32.42 52.11 32.36C52.17 32.3 52.22 32.3 52.28 32.25C52.34 32.19 52.39 32.19 52.45 32.19C52.62 32.19 52.67 32.19 52.73 32.13L52.7 32.16ZM36.44 33.44C39.57 35.51 40.3 38.97 39.96 41.6C38.45 41.94 37.05 42.16 35.88 42.33C35.82 41.88 35.77 41.38 35.66 40.93C34.82 36.96 31.75 32.38 29.23 29.09L28.78 27.86C30.29 29.09 32.75 30.99 36.43 33.45L36.44 33.44ZM21.35 21.43C21.35 21.37 21.18 15.4 23.75 12.83C22.86 16.85 22.8 20.76 22.74 21.04L24.14 21.1C24.14 21.04 24.2 17.92 24.81 14.4C25.37 11.22 26.21 8.76 27.27 7.19L25.15 20.71L25.54 22.89L25.48 22.83L25.54 23.05L25.93 25.17C25.65 24.83 25.48 24.67 25.43 24.61L24.15 23.21L24.32 26.39C23.76 25.44 23.31 24.71 23.26 24.66L22.7 23.71L22.14 24.66C22.08 24.72 21.69 25.39 21.19 26.22L21.36 23.26L20.3 24.43L21.36 21.64V21.42L21.35 21.43ZM6.20998 43.73C4.92998 40.49 5.53998 35.85 9.16998 33.45C12.86 30.99 15.32 29.09 16.82 27.86L16.37 29.09C13.86 32.39 10.78 37.02 9.93998 40.93C9.32998 43.78 9.87998 46.24 11.39 47.91C9.09999 47.74 7.19998 46.23 6.18998 43.72L6.20998 43.73ZM13.19 47.64C11.4 46.36 10.73 44.01 11.35 41.21C12.41 36.24 17.44 29.81 19.84 26.96L19.73 28.75C19.51 29.14 19.28 29.53 19.12 29.87C17.22 33.5 15.49 42.89 18.17 47.36C18.34 47.58 18.45 47.81 18.62 48.03C16.78 48.87 14.71 48.76 13.2 47.64H13.19ZM22.74 48.59C21.23 48.59 20.11 47.98 19.33 46.69C16.93 42.72 18.6 33.84 20.34 30.54C20.95 29.37 22.07 27.47 22.74 26.29C23.41 27.46 24.58 29.36 25.14 30.54C26.82 33.84 28.55 42.66 26.15 46.69C25.37 47.98 24.25 48.59 22.74 48.59ZM30.9 46.24C31.12 46.74 31.51 47.36 31.96 47.97C30.51 48.81 28.61 48.86 26.88 48.08C27.05 47.86 27.22 47.69 27.33 47.47C30.07 43 28.28 33.61 26.38 29.98C26.21 29.7 26.04 29.37 25.88 29.03L25.77 27.02C28.17 29.87 33.2 36.24 34.26 41.27C34.37 41.72 34.43 42.11 34.43 42.55C32.92 42.72 31.97 42.72 31.97 42.72H31.41L30.8 46.02L30.91 46.24H30.9ZM43.97 49.76C41.96 50.99 39.95 51.32 37.94 50.77C35.15 49.93 33.02 47.36 32.19 45.85L32.53 44.06C34.65 43.95 42.48 43.33 49.35 39.65C49.41 41.83 48.79 46.8 43.99 49.76H43.97Z" fill="#3D6D4A"/>
</g>
<defs>
<clipPath id="clip0_14302_1533">
<rect width="56" height="56" fill="white" transform="translate(0.5)"/>
</clipPath>
</defs>
</svg>
