<svg width="57" height="56" viewBox="0 0 57 56" fill="none" xmlns="http://www.w3.org/2000/svg">
<g clip-path="url(#clip0_14302_54)">
<path d="M24.91 18.07C24.91 14.57 21.82 11.84 21.72 11.74C21.26 11.33 20.59 11.33 20.18 11.74C20.03 11.84 16.99 14.57 16.99 18.07C16.99 21.57 20.08 24.3 20.18 24.4C20.39 24.61 20.69 24.71 20.95 24.71C21.21 24.71 21.52 24.61 21.72 24.4C21.82 24.3 24.91 21.57 24.91 18.07ZM19.3 18.07C19.3 16.58 20.23 15.19 20.89 14.37C21.56 15.19 22.48 16.58 22.48 18.07C22.48 19.56 21.55 20.95 20.89 21.77C20.22 20.95 19.3 19.56 19.3 18.07Z" fill="#3D6D4A"/>
<path d="M11.02 22.19C10.45 22.24 9.98997 22.76 9.93997 23.32C9.93997 23.47 9.83997 27.59 12.41 29.96C14.26 31.71 16.94 31.92 18.33 31.92C18.84 31.92 19.2 31.87 19.2 31.87C19.77 31.82 20.23 31.3 20.28 30.74C20.28 30.59 20.38 26.47 17.81 24.1C15.24 21.73 11.17 22.14 11.02 22.2V22.19ZM14.06 28.21C12.98 27.18 12.57 25.59 12.41 24.56C13.49 24.61 15.14 24.87 16.22 25.9C17.3 26.93 17.71 28.52 17.87 29.55C16.79 29.5 15.14 29.19 14.06 28.21Z" fill="#3D6D4A"/>
<path d="M31.9 23.32C31.9 22.7 31.44 22.24 30.82 22.19C30.67 22.19 26.6 21.73 24.03 24.15C21.46 26.52 21.56 30.63 21.56 30.79C21.56 31.41 22.02 31.87 22.64 31.92C22.69 31.92 23 31.97 23.51 31.97C24.9 31.97 27.57 31.71 29.43 30.01C31.95 27.59 31.9 23.48 31.9 23.32ZM27.78 28.21C26.7 29.24 25.05 29.5 23.97 29.55C24.12 28.47 24.48 26.87 25.62 25.9C26.7 24.87 28.35 24.61 29.43 24.56C29.28 25.59 28.86 27.18 27.78 28.21Z" fill="#3D6D4A"/>
<path d="M52.7399 35.41C52.5299 35.1 52.1699 34.9 51.7599 34.9H47.4399L50.5799 28.11C50.8399 27.49 50.5799 26.82 50.0099 26.52C49.3899 26.26 48.7199 26.52 48.4199 27.09L44.8199 34.86H37.7699V9.43C37.7699 7.32 36.0699 5.62 33.9599 5.62H15.8999C14.5599 5.62 13.2199 6.19 12.2999 7.16L5.50995 14.16C4.57995 15.09 4.06995 16.32 4.06995 17.66V46.11C4.06995 48.42 5.96995 50.38 8.28995 50.38H44.9199C45.5899 50.38 46.0999 49.87 46.0999 49.2V47.19C46.3599 47.04 46.6099 46.93 46.8199 46.73C48.9299 45.29 50.4699 43.33 51.2399 41.07L52.8299 36.49C52.9799 36.13 52.9299 35.72 52.7299 35.41H52.7399ZM6.43995 17.66C6.43995 16.99 6.69995 16.32 7.20995 15.81L13.9999 8.76C14.4599 8.25 15.1799 7.94 15.8999 7.94H33.9599C34.7299 7.94 35.3499 8.56 35.3499 9.33V34.85H25.7299C25.3199 34.85 24.9599 35.06 24.7499 35.36C24.5399 35.67 24.4899 36.08 24.5999 36.44L25.8299 39.84H6.43995V17.66ZM31.3899 48.01H8.28995C7.25995 48.01 6.43995 47.19 6.43995 46.16V42.35H26.7099C27.5799 44.05 28.8699 45.59 30.6199 46.77C30.8299 46.92 31.0799 47.08 31.3399 47.18V48H31.3899V48.01ZM49.0399 40.29C48.4199 42.04 47.1899 43.63 45.4899 44.82C45.2299 44.97 44.9199 45.13 44.5599 45.28C44.0999 45.43 43.7399 45.9 43.7399 46.41V48H33.7599V46.41C33.7599 45.9 33.4499 45.48 32.9899 45.28C32.5799 45.13 32.2199 44.97 32.0099 44.82C30.3099 43.64 29.1299 42.09 28.5099 40.34L27.4299 37.36H50.1199L49.0399 40.29Z" fill="#3D6D4A"/>
</g>
<defs>
<clipPath id="clip0_14302_54">
<rect width="56" height="56" fill="white" transform="translate(0.5)"/>
</clipPath>
</defs>
</svg>
