<svg width="57" height="56" viewBox="0 0 57 56" fill="none" xmlns="http://www.w3.org/2000/svg">
<g clip-path="url(#clip0_14302_373)">
<path d="M23.24 20.68H18.8C17.19 20.68 15.87 19.36 15.87 17.75V8.68C15.87 7.07 17.19 5.75 18.8 5.75H23.24C24.85 5.75 26.17 7.07 26.17 8.68V17.75C26.08 19.45 24.85 20.68 23.24 20.68ZM18.71 7.74C18.14 7.74 17.67 8.21 17.67 8.78V17.85C17.67 18.42 18.14 18.89 18.71 18.89H23.15C23.72 18.89 24.19 18.42 24.19 17.85V8.77C24.19 8.2 23.72 7.73 23.15 7.73H18.71V7.74Z" fill="#3D6D4A"/>
<path d="M34.0099 30.13C33.4399 30.13 33.06 29.75 33.06 29.18V22.09C33.06 20.01 32.3 18.59 30.7 17.84C29.85 17.46 29 17.18 28.15 17.18C27.58 17.18 27.2 16.8 27.2 16.23C27.2 15.66 27.58 15.28 28.15 15.28C29.28 15.28 30.5099 15.56 31.5499 16.13C33.1599 16.89 35.0499 18.59 35.0499 22.18V29.27C34.9599 29.74 34.4799 30.12 34.0099 30.12V30.13Z" fill="#3D6D4A"/>
<path d="M20.97 50.25C16.44 50.25 12.09 50.25 8.96999 49.02C5.28999 47.6 3.48999 44.58 3.48999 39.86C3.48999 33.34 7.16999 27.39 12.94 24.37V16.62L9.62999 12.18C9.34999 11.8 9.43999 11.14 9.81999 10.86C10.01 10.77 10.2 10.67 10.39 10.67H26.26C27.77 10.67 29.09 11.9 29.09 13.5V24.46C34.85 27.48 38.54 33.44 38.54 39.95C38.54 44.67 36.74 47.6 33.06 49.11C29.85 50.24 25.6 50.24 20.97 50.24V50.25ZM12.28 12.46L14.74 15.67C14.83 15.86 14.93 16.05 14.93 16.24V24.93C14.93 25.31 14.74 25.59 14.36 25.78C8.96999 28.33 5.47999 33.81 5.47999 39.86C5.47999 43.83 6.79999 46.1 9.72999 47.23C12.56 48.36 16.72 48.36 21.07 48.36C25.42 48.36 29.57 48.36 32.41 47.23C35.34 46.1 36.66 43.83 36.66 39.86C36.66 33.81 33.16 28.33 27.78 25.78C27.5 25.59 27.21 25.31 27.21 24.93V13.4C27.21 12.93 26.83 12.45 26.27 12.45H12.28V12.46Z" fill="#3D6D4A"/>
<path d="M31.6499 34.85H10.3899C9.81994 34.85 9.43994 34.47 9.43994 33.9C9.43994 33.33 9.81994 32.95 10.3899 32.95H31.6499C32.2199 32.95 32.5999 33.33 32.5999 33.9C32.5999 34.47 32.1299 34.85 31.6499 34.85Z" fill="#3D6D4A"/>
<path d="M28.06 46.75C27.49 46.75 27.11 46.37 27.11 45.8C27.11 45.23 27.49 44.85 28.06 44.85C32.97 44.85 32.97 41.26 32.97 41.07C32.97 40.5 33.35 40.12 33.92 40.12C34.49 40.12 34.87 40.5 34.87 41.07C34.96 41.07 34.87 46.74 28.07 46.74L28.06 46.75Z" fill="#3D6D4A"/>
<path d="M24.56 46.75H24.37C24.31 46.75 24.2467 46.72 24.18 46.66C24.09 46.66 24.09 46.57 23.99 46.57C23.89 46.57 23.9 46.48 23.8 46.48C23.61 46.29 23.52 46.1 23.52 45.82V45.63C23.52 45.57 23.55 45.5067 23.61 45.44C23.61 45.35 23.7 45.35 23.7 45.25L23.98 44.97C24.07 44.97 24.07 44.88 24.17 44.88C24.36 44.79 24.64 44.79 24.93 44.88C25.02 44.88 25.02 44.97 25.12 44.97C25.22 44.97 25.21 45.06 25.31 45.06C25.31 45.06 25.4 45.15 25.4 45.25C25.4 45.35 25.49 45.34 25.49 45.44C25.49 45.54 25.49 45.53 25.58 45.63V45.82C25.58 46.1 25.49 46.29 25.3 46.48C25.3 46.48 25.21 46.57 25.11 46.57C25.01 46.57 25.02 46.66 24.92 46.66C24.82 46.66 24.83 46.66 24.73 46.75C24.64 46.66 24.54 46.75 24.54 46.75H24.56Z" fill="#3D6D4A"/>
<path d="M46.46 31.18C42.55 31.18 39.41 28 39.41 24.13C39.41 23.03 39.67 21.94 40.18 20.95L40.22 20.91L46.47 9.99L52.75 20.95C53.26 21.94 53.52 23.03 53.52 24.13C53.52 28 50.38 31.18 46.47 31.18H46.46ZM41.45 21.61C41.05 22.41 40.87 23.25 40.87 24.13C40.87 27.2 43.35 29.72 46.46 29.72C49.57 29.72 52.05 27.2 52.05 24.13C52.05 23.25 51.87 22.41 51.47 21.61L46.46 12.91L41.45 21.61Z" fill="#3D6D4A"/>
<path d="M46.3101 28.69V27.23C47.4801 27.23 48.5801 26.65 49.2001 25.62L50.4401 26.39C49.5601 27.85 47.9901 28.69 46.3101 28.69Z" fill="#3D6D4A"/>
</g>
<defs>
<clipPath id="clip0_14302_373">
<rect width="56" height="56" fill="white" transform="translate(0.5)"/>
</clipPath>
</defs>
</svg>
