<svg width="57" height="56" viewBox="0 0 57 56" fill="none" xmlns="http://www.w3.org/2000/svg">
<g clip-path="url(#clip0_14302_102)">
<path d="M52.4501 24.18C51.3501 23.16 49.9101 22.66 48.7801 22.35C47.5801 22.01 46.0101 21.67 44.4801 22.13C43.9901 22.28 43.5201 22.51 43.0601 22.87C43.0301 22.89 42.9901 22.91 42.9601 22.93L33.5601 30.02C31.6301 30.48 30.0801 30.32 28.8401 29.53C27.1501 28.46 26.1801 26.28 25.4901 23.78C27.0201 25.9 29.0101 27.68 30.1401 26.93C31.3601 26.12 30.2301 23.24 28.6701 20.9C28.4701 20.6 28.2601 20.31 28.0601 20.04C28.3901 20.12 28.7401 20.21 29.0901 20.28C31.8401 20.83 34.9401 20.78 35.2301 19.34C35.5201 17.9 32.6801 16.66 29.9301 16.11C29.5801 16.04 29.2301 15.97 28.8901 15.93C29.1901 15.75 29.4901 15.57 29.7901 15.37C32.1301 13.81 34.2701 11.59 33.4701 10.36C32.5401 8.97 29.2401 10.63 27.4301 11.83C27.1401 12.03 26.8501 12.23 26.5701 12.44C26.6601 12.11 26.7401 11.76 26.8101 11.41C27.1001 9.97 27.1901 8.57 27.0901 7.48C26.9701 6.15 26.5501 5.41 25.8601 5.27C24.4501 5 23.1901 7.82 22.6301 10.57C22.5601 10.92 22.5101 11.27 22.4501 11.62C22.2701 11.32 22.0901 11.02 21.8901 10.72C21.0801 9.49 20.1601 8.44 19.3101 7.74C18.2801 6.89 17.4601 6.66 16.8801 7.04C15.6601 7.86 16.7901 10.75 18.3501 13.08C18.5501 13.38 18.7601 13.67 18.9601 13.94C18.6301 13.86 18.2801 13.77 17.9201 13.7C16.4801 13.41 15.0801 13.32 13.9901 13.41C12.6601 13.53 11.9201 13.95 11.7901 14.64C11.6501 15.33 12.1701 15.99 13.3501 16.62C14.3201 17.14 15.6401 17.58 17.0801 17.87C17.4401 17.94 17.7901 18.01 18.1301 18.05C17.8301 18.23 17.5301 18.41 17.2401 18.61C15.1401 20 13.6301 21.61 13.4101 22.71C13.3301 23.15 13.4401 23.45 13.5601 23.61C13.9401 24.19 14.7901 24.29 16.0701 23.9C17.1201 23.59 18.3701 22.96 19.5901 22.14C19.8901 21.94 20.1801 21.73 20.4601 21.53C20.3701 21.86 20.2901 22.22 20.2201 22.56C19.6701 25.31 19.7201 28.41 21.1601 28.7C21.2301 28.71 21.3001 28.72 21.3601 28.72C22.6801 28.72 23.8101 26.15 24.3501 23.58C25.1101 26.53 26.1801 29.06 28.2701 30.39C29.2201 30.99 30.3201 31.29 31.5801 31.29C31.6701 31.29 31.7801 31.27 31.8701 31.27L28.6601 33.7C28.0001 33.35 27.2701 33.12 26.4801 33.11C26.3801 33 26.2601 32.89 26.1201 32.81C25.3301 32.38 23.9501 32.58 22.4201 33.33C21.1701 33.95 20.0801 34.82 19.4801 35.64C18.5901 35.61 16.1901 35.61 13.8901 35.79C13.2801 34.03 12.6301 32.47 12.3601 31.83C12.9101 30.97 13.3101 29.62 13.4201 28.22C13.5401 26.52 13.2101 25.16 12.5301 24.59C12.4101 24.49 12.2601 24.41 12.1101 24.36C11.1201 21.99 8.40006 20.84 6.01006 21.79C3.62006 22.75 2.44006 25.46 3.37006 27.86C3.30006 28 3.25006 28.14 3.22006 28.31C3.12006 29.19 3.81006 30.41 5.08006 31.55C6.12006 32.48 7.34006 33.17 8.33006 33.42C8.53006 33.95 8.97006 35.09 9.55006 36.41C8.78006 36.69 7.99006 37.08 7.99006 37.84C7.99006 38.88 9.48006 39.3 11.0301 39.56C11.9301 41.31 12.9201 42.85 13.7501 43.25C13.9501 43.35 14.1301 43.39 14.2901 43.39C14.4401 43.39 14.5601 43.36 14.6501 43.32C14.8501 43.25 15.1101 43.06 15.2501 42.65C15.4601 42.09 15.3601 41.1 15.1101 39.95C16.9701 40.04 18.7401 40.03 19.4901 40.01C19.6001 40.18 19.7601 40.33 19.9101 40.5C19.0801 41.45 18.6301 42.58 18.6901 43.72C18.7501 44.89 19.3701 46.01 20.3801 46.8C21.1701 47.4 22.1001 47.73 22.9601 47.73C23.2401 47.73 23.5301 47.7 23.7901 47.63C25.0101 47.31 25.8901 46.61 26.3401 45.6C26.8401 44.49 26.6901 43.26 26.4901 42.56C28.0501 42.54 29.4201 41.76 30.2601 40.57C32.4301 41.42 35.5501 43.31 34.9801 47.04C34.9701 47.11 34.9701 47.18 34.9901 47.25L34.1401 48.13C33.4201 49.12 32.2601 49.72 31.0801 49.72C31.0001 49.72 30.9001 49.71 30.7801 49.7C29.3101 49.58 28.1001 48.44 28.0101 47.12C27.9701 46.41 28.3401 45.69 28.9801 45.23C29.5401 44.83 30.1601 44.74 30.7201 44.97C30.9801 45.08 31.2901 44.96 31.4001 44.69C31.5101 44.43 31.3901 44.12 31.1201 44.01C30.2401 43.64 29.2401 43.78 28.3901 44.38C27.4501 45.05 26.9201 46.12 26.9901 47.18C27.1001 49 28.7401 50.56 30.7301 50.73C30.8501 50.74 30.9701 50.75 31.0801 50.75C32.5801 50.75 34.0701 49.97 34.9401 48.79L53.1001 29.81C53.4501 29.41 53.7001 28.99 53.8301 28.54C54.3001 27.07 53.7701 25.37 52.4801 24.18H52.4501ZM23.3801 23.2C22.7601 26.31 21.6601 27.69 21.3701 27.69C21.0901 27.58 20.6201 25.88 21.2501 22.77C21.4401 21.81 21.7101 20.9 22.0301 20.12C22.1201 19.89 22.0401 19.63 21.8301 19.5C21.7501 19.44 21.6401 19.42 21.5401 19.42C21.4001 19.42 21.2701 19.47 21.1801 19.57C20.5901 20.15 19.8401 20.75 19.0201 21.3C16.3901 23.06 14.6501 23.25 14.4401 23.05C14.3301 22.77 15.1901 21.24 17.8301 19.49C18.6601 18.94 19.4901 18.48 20.2501 18.16C20.4801 18.07 20.6001 17.82 20.5601 17.58C20.5201 17.34 20.3001 17.16 20.0501 17.16C19.2301 17.16 18.3001 17.06 17.3101 16.86C14.2101 16.24 12.8301 15.16 12.8301 14.86C12.9401 14.58 14.6301 14.11 17.7401 14.74C18.7401 14.94 19.6301 15.2 20.3901 15.52C20.6201 15.61 20.8801 15.54 21.0201 15.33C21.1601 15.12 21.1301 14.85 20.9601 14.67C20.3901 14.09 19.8001 13.34 19.2301 12.51C17.5401 9.98 17.2301 8.14 17.4701 7.92C17.7601 7.8 19.2801 8.68 21.0401 11.31C21.5801 12.13 22.0401 12.96 22.3601 13.73C22.4501 13.96 22.6901 14.09 22.9401 14.04C23.1801 14 23.3601 13.78 23.3601 13.53C23.3701 12.69 23.4701 11.73 23.6601 10.79C24.2801 7.68 25.3601 6.3 25.6701 6.3C25.9501 6.41 26.4301 8.11 25.8101 11.22C25.6201 12.16 25.3501 13.07 25.0301 13.85C24.9401 14.08 25.0201 14.34 25.2201 14.47C25.4301 14.61 25.7001 14.58 25.8801 14.41C26.4801 13.83 27.2201 13.23 28.0301 12.69C30.6701 10.94 32.4201 10.73 32.6201 10.93C32.7601 11.23 31.7601 12.81 29.2301 14.51C28.3901 15.07 27.5601 15.53 26.8201 15.83C26.5901 15.92 26.4601 16.16 26.5101 16.41C26.5501 16.65 26.7701 16.83 27.0201 16.84C27.8301 16.85 28.7801 16.95 29.7501 17.15C32.8601 17.77 34.2401 18.85 34.2401 19.16C34.1301 19.44 32.4301 19.91 29.3201 19.28C28.3501 19.08 27.4401 18.82 26.6801 18.51C26.4501 18.42 26.1901 18.5 26.0501 18.71C25.9101 18.92 25.9501 19.19 26.1101 19.37C26.6701 19.93 27.2601 20.67 27.8301 21.51C29.5901 24.14 29.7901 25.89 29.5901 26.09C29.3101 26.21 27.7801 25.34 26.0201 22.71C25.4701 21.88 24.8101 21.1 24.7001 20.3C24.6101 19.68 23.6101 19.79 23.7001 20.5C23.8101 21.32 23.5901 22.28 23.4001 23.21L23.3801 23.2ZM6.37006 22.79C8.16006 22.08 10.1501 22.87 11.0101 24.55C10.5401 24.84 10.1201 25.41 9.77006 26.2C9.16006 25.41 8.47006 24.98 7.84006 25.05C7.47006 25.08 7.14006 25.27 6.90006 25.59C6.56006 26.06 6.40006 26.79 6.45006 27.67C5.59006 27.26 4.83006 27.13 4.24006 27.25C3.70006 25.45 4.59006 23.5 6.37006 22.79ZM9.00006 37.86C9.00006 37.86 9.15006 37.63 9.96006 37.4C10.1101 37.72 10.2601 38.06 10.4201 38.38C9.19006 38.11 9.02006 37.87 9.01006 37.86H9.00006ZM14.2501 42.34C13.0801 42.28 9.57006 34.21 9.21006 32.86C9.16006 32.66 8.99006 32.52 8.79006 32.49C7.95006 32.35 6.75006 31.69 5.76006 30.81C4.69006 29.85 4.18006 28.9 4.23006 28.46C4.24006 28.36 4.28006 28.34 4.32006 28.31C4.39006 28.27 4.51006 28.25 4.65006 28.25C5.13006 28.25 5.92006 28.5 6.82006 29.08C7.00006 29.19 7.23006 29.18 7.39006 29.07C7.57006 28.96 7.65006 28.74 7.61006 28.54C7.35006 27.3 7.52006 26.52 7.72006 26.23C7.79006 26.13 7.87006 26.11 7.92006 26.11C8.25006 26.09 8.89006 26.62 9.45006 27.66C9.55006 27.85 9.75006 27.95 9.97006 27.93C10.1801 27.91 10.3501 27.75 10.4101 27.55C10.7501 26.27 11.3001 25.49 11.6601 25.4C11.7101 25.39 11.7501 25.38 11.8301 25.44C12.1701 25.72 12.4501 26.76 12.3501 28.19C12.2501 29.52 11.8401 30.82 11.3301 31.5C11.2101 31.67 11.1901 31.88 11.2901 32.06C11.5801 32.57 15.1001 41.21 14.2401 42.35L14.2501 42.34ZM14.8401 38.89C14.6601 38.21 14.4401 37.51 14.2201 36.81C16.8601 36.62 19.4101 36.67 19.6701 36.71C19.8801 36.74 20.0801 36.64 20.1801 36.46C20.6201 35.72 21.6801 34.87 22.8701 34.28C24.1601 33.65 25.2301 33.53 25.6201 33.74C25.7001 33.79 25.7201 33.83 25.7201 33.88C25.7601 34.26 25.2101 35.11 24.0801 35.92C23.9101 36.04 23.8301 36.25 23.8701 36.46C23.9101 36.67 24.0801 36.82 24.2901 36.86C25.5401 37.08 26.2001 37.52 26.3901 37.83C26.4601 37.94 26.4501 38.01 26.4301 38.06C26.3401 38.37 25.6001 38.78 24.4201 38.9C24.2101 38.92 24.0401 39.08 23.9701 39.28C23.9201 39.49 23.9901 39.71 24.1601 39.83C25.2201 40.62 25.7401 41.43 25.7001 41.79C25.6901 41.83 25.6801 41.88 25.6101 41.93H25.6001C25.2001 42.15 24.1401 42.03 22.8601 41.4C21.6601 40.81 20.6001 39.96 20.1701 39.22C20.0701 39.04 19.8801 38.95 19.6701 38.97C19.4601 39 17.2501 39.04 14.8501 38.91L14.8401 38.89ZM25.3701 45.16C25.0501 45.88 24.4201 46.37 23.5101 46.6C22.7301 46.81 21.7801 46.57 20.9801 45.97C20.2101 45.38 19.7401 44.54 19.6901 43.67C19.6501 42.81 19.9801 41.94 20.6301 41.21C21.1501 41.63 21.7501 42.01 22.4001 42.33C23.4001 42.82 24.3301 43.08 25.0801 43.08C25.2401 43.08 25.3801 43.06 25.5201 43.04C25.6601 43.56 25.7101 44.42 25.3701 45.16ZM26.7301 41.48C26.6401 40.94 26.2601 40.33 25.6501 39.71C26.6101 39.43 27.2501 38.95 27.4401 38.35C27.5401 37.99 27.4901 37.62 27.2801 37.28C26.9801 36.79 26.3501 36.38 25.5101 36.1C26.2101 35.46 26.6101 34.79 26.7201 34.2C28.6001 34.36 30.0801 35.93 30.0801 37.84C30.0801 39.76 28.6001 41.32 26.7301 41.49V41.48ZM52.8101 28.23C52.7201 28.53 52.5501 28.83 52.3101 29.09C52.2901 29.11 52.2701 29.14 52.2401 29.18L36.0601 46.08C36.0301 43.3 34.1501 41.01 30.7601 39.65C31.0001 39.09 31.1201 38.48 31.1201 37.83C31.1201 36.44 30.5101 35.2 29.5501 34.34L43.5101 23.79C43.5101 23.79 43.5901 23.75 43.6201 23.72C43.9601 23.45 44.3701 23.23 44.7601 23.12C46.0401 22.75 47.4201 23.05 48.4801 23.35C49.5001 23.63 50.7901 24.08 51.7201 24.94C52.7101 25.85 53.1201 27.14 52.7901 28.24L52.8101 28.23Z" fill="#3D6D4A"/>
</g>
<defs>
<clipPath id="clip0_14302_102">
<rect width="56" height="56" fill="white" transform="translate(0.5)"/>
</clipPath>
</defs>
</svg>
