<svg width="57" height="56" viewBox="0 0 57 56" fill="none" xmlns="http://www.w3.org/2000/svg">
<g clip-path="url(#clip0_14302_1406)">
<g clip-path="url(#clip1_14302_1406)">
<path d="M22.4499 42.13C22.1699 42.25 21.9199 42.36 21.6799 42.45L24.2599 48.37C24.3799 48.65 24.2399 49.01 23.9599 49.13C23.5499 49.31 23.2699 49.64 23.1299 50C22.9799 50.38 22.9699 50.82 23.1499 51.2V51.23C23.3499 51.61 23.6599 51.89 24.0199 52.03C24.3999 52.18 24.8099 52.18 25.2199 52.01C25.4099 51.93 25.5499 51.83 25.6799 51.7C25.8299 51.58 25.9199 51.41 26.0199 51.24C26.1599 50.96 26.4599 50.84 26.7399 50.92C26.9299 50.97 27.1199 51.01 27.3099 50.99C27.4899 50.99 27.6899 50.96 27.8499 50.86C28.2599 50.68 28.5399 50.35 28.6799 49.99C28.8299 49.61 28.8299 49.2 28.6599 48.79V48.76C28.4799 48.39 28.1699 48.11 27.7899 47.96C27.4299 47.82 26.9999 47.81 26.5899 47.98C26.3099 48.1 25.9499 47.96 25.8299 47.68L23.2099 41.78C22.9799 41.9 22.7299 42.01 22.4499 42.13ZM20.5199 42.77C18.1099 43.25 17.1099 41.91 15.8199 40.22C15.2099 39.39 14.5199 38.45 13.4999 37.66C12.4499 36.84 11.3399 36.1 10.2699 35.4C7.35994 33.52 4.65994 31.74 3.02994 28.03C1.68994 24.97 1.69994 21.67 2.82994 18.77C3.95994 15.87 6.17994 13.43 9.22994 12.08C12.2899 10.74 15.6099 10.76 18.4899 11.88C21.3699 13 23.8299 15.23 25.1799 18.28C26.3299 20.9 25.9099 25.18 25.4899 29.39C25.3799 30.46 25.2799 31.53 25.2099 32.51C25.0999 33.79 25.3299 34.93 25.5299 35.94C25.9099 38.03 26.2199 39.67 24.2399 41.12L26.6999 46.7C27.2299 46.6 27.7599 46.65 28.2299 46.83C28.8799 47.08 29.4099 47.57 29.7199 48.24L29.7599 48.28C30.0599 48.97 30.0499 49.74 29.7899 50.39C29.5299 51.04 29.0399 51.6 28.3399 51.92C28.0299 52.06 27.6999 52.11 27.3799 52.14C27.1999 52.14 27.0399 52.14 26.8699 52.12C26.7599 52.26 26.6699 52.38 26.5399 52.51C26.2999 52.73 26.0399 52.94 25.7299 53.07C25.0199 53.36 24.2699 53.36 23.6199 53.1C22.9699 52.84 22.4299 52.38 22.1299 51.69L22.0899 51.65C21.7899 50.96 21.7999 50.19 22.0599 49.54C22.2399 49.07 22.5599 48.65 22.9999 48.33L20.5399 42.75L20.5199 42.77ZM11.4199 17.05C11.1299 17.2 10.7699 17.05 10.6599 16.75C10.5099 16.46 10.6599 16.1 10.9599 15.99C12.9299 15.1 15.0999 15.12 16.9599 15.84C18.8199 16.56 20.4299 18.02 21.3099 20.01C21.4299 20.29 21.2899 20.65 21.0099 20.77C20.6999 20.91 20.3399 20.77 20.2199 20.46C19.4799 18.78 18.1199 17.55 16.5299 16.93C14.9399 16.31 13.1099 16.3 11.4199 17.04V17.05ZM16.7799 39.5C18.0199 41.17 18.9399 42.38 21.9899 41.06C25.0199 39.71 24.7499 38.21 24.3599 36.16C24.1599 35.07 23.9299 33.87 24.0299 32.41C24.1299 31.36 24.2199 30.31 24.3199 29.27C24.7299 25.22 25.1199 21.1 24.0899 18.76C22.8899 15.99 20.6699 13.99 18.0699 12.98C15.4699 11.97 12.4799 11.94 9.71994 13.17C6.94994 14.37 4.94994 16.59 3.93994 19.19C2.92994 21.79 2.89994 24.78 4.12994 27.54C5.59994 30.93 8.17994 32.61 10.9199 34.42C12.0099 35.13 13.1299 35.85 14.2399 36.72C15.3899 37.63 16.1099 38.61 16.7799 39.49V39.5Z" fill="#3D6D4A"/>
<path d="M23.56 53.24C22.84 52.96 22.31 52.46 22.01 51.78L21.96 51.72C21.66 51.04 21.65 50.23 21.92 49.52C22.1 49.05 22.41 48.64 22.82 48.31L20.44 42.91C18.04 43.35 17.03 42.01 15.75 40.33L15.72 40.29C15.12 39.47 14.44 38.54 13.43 37.76C12.35 36.91 11.2 36.15 10.21 35.5C7.31996 33.63 4.58996 31.86 2.91996 28.08C1.60996 25.09 1.52996 21.77 2.71996 18.73C3.90996 15.69 6.19995 13.29 9.18996 11.97C12.18 10.66 15.5 10.59 18.54 11.77C21.58 12.95 23.98 15.25 25.3 18.24C26.47 20.9 26.04 25.23 25.62 29.41C25.52 30.46 25.41 31.54 25.34 32.53C25.23 33.8 25.46 34.93 25.66 35.93V35.98C26.05 38.06 26.35 39.71 24.4 41.18L26.78 46.58C27.29 46.5 27.81 46.55 28.28 46.73C28.96 47 29.51 47.51 29.83 48.18L29.88 48.24C30.18 48.92 30.19 49.73 29.92 50.44C29.65 51.15 29.11 51.71 28.41 52.04C28.06 52.19 27.71 52.24 27.4 52.27C27.24 52.27 27.1 52.27 26.94 52.26C26.84 52.39 26.75 52.5 26.64 52.61C26.42 52.81 26.14 53.05 25.79 53.2C25.07 53.5 24.29 53.51 23.59 53.24H23.56ZM22.18 51.61L22.22 51.67C22.49 52.29 22.99 52.76 23.65 53.01C24.31 53.26 25.01 53.25 25.66 52.98C25.97 52.84 26.23 52.63 26.44 52.44C26.55 52.33 26.64 52.22 26.76 52.07L26.8 52.01H26.87C27.05 52.03 27.2 52.04 27.36 52.03C27.64 52 27.97 51.96 28.28 51.82C28.92 51.52 29.41 51 29.66 50.36C29.91 49.72 29.9 48.99 29.64 48.37L29.6 48.31C29.31 47.69 28.8 47.21 28.17 46.97C27.71 46.79 27.21 46.75 26.71 46.85L26.61 46.87L26.57 46.78L24.07 41.11L24.15 41.05C26.06 39.66 25.77 38.06 25.4 36.03V35.98C25.19 34.97 24.96 33.82 25.07 32.51C25.14 31.52 25.25 30.44 25.35 29.39C25.77 25.24 26.2 20.94 25.05 18.34C23.76 15.41 21.41 13.17 18.43 12.01C15.45 10.85 12.2 10.92 9.26996 12.21C6.33996 13.5 4.08996 15.85 2.92996 18.83C1.76996 21.81 1.83996 25.06 3.12996 27.99C4.75996 31.71 7.46996 33.45 10.33 35.3C11.33 35.95 12.48 36.72 13.57 37.57C14.61 38.37 15.33 39.36 15.91 40.15L15.94 40.19C17.18 41.83 18.17 43.12 20.48 42.66L20.7 42.62L20.64 42.79L23.12 48.42L23.04 48.48C22.63 48.78 22.32 49.18 22.15 49.64C21.9 50.29 21.91 51.01 22.17 51.63L22.18 51.61ZM23.99 52.14C23.59 51.98 23.26 51.68 23.07 51.28L23.05 51.24C22.86 50.85 22.85 50.39 23.02 49.95C23.18 49.53 23.51 49.19 23.91 49.01C24.13 48.91 24.24 48.63 24.14 48.41L21.5 42.37L21.63 42.32C21.86 42.24 22.1 42.13 22.38 42.01L22.61 41.91C22.8 41.83 22.98 41.74 23.14 41.66L23.26 41.6L23.31 41.72L25.93 47.62C26.03 47.84 26.31 47.95 26.53 47.85C26.94 47.67 27.41 47.66 27.82 47.82C28.23 47.98 28.57 48.29 28.74 48.68V48.71C28.94 49.13 28.95 49.58 28.78 50C28.61 50.42 28.29 50.76 27.89 50.94C27.74 51.02 27.55 51.07 27.3 51.08C27.1 51.11 26.89 51.06 26.7 51.01C26.46 50.94 26.23 51.04 26.13 51.26C26.03 51.45 25.93 51.63 25.76 51.77C25.63 51.91 25.47 52.01 25.27 52.1C24.85 52.28 24.4 52.29 23.98 52.13L23.99 52.14ZM21.86 42.53L24.39 48.32C24.54 48.66 24.37 49.1 24.03 49.25C23.68 49.4 23.41 49.69 23.27 50.05C23.12 50.43 23.13 50.82 23.29 51.15L23.31 51.19C23.47 51.53 23.75 51.79 24.09 51.92C24.46 52.06 24.84 52.05 25.19 51.9C25.36 51.83 25.49 51.74 25.61 51.61C25.75 51.5 25.83 51.34 25.92 51.18C26.08 50.85 26.43 50.7 26.79 50.8C26.97 50.84 27.14 50.89 27.3 50.86C27.52 50.86 27.67 50.82 27.8 50.75C28.16 50.59 28.43 50.3 28.57 49.95C28.71 49.6 28.7 49.2 28.55 48.85V48.82C28.39 48.49 28.11 48.23 27.75 48.09C27.39 47.95 26.99 47.96 26.65 48.11C26.31 48.26 25.87 48.09 25.72 47.75L23.16 41.97C22.96 42.07 22.74 42.17 22.51 42.27L21.86 42.56V42.53ZM18.78 41.58C17.91 41.24 17.33 40.46 16.68 39.58L16.62 39.5C15.98 38.66 15.26 37.7 14.16 36.83C13.1 36 12.03 35.3 10.99 34.63L10.73 34.46C8.02996 32.67 5.47996 30.98 4.00996 27.6C2.80996 24.92 2.73996 21.92 3.81996 19.16C4.89996 16.4 6.96996 14.23 9.66996 13.07C12.35 11.87 15.35 11.8 18.11 12.88C20.87 13.96 23.03 16.03 24.2 18.73C25.27 21.16 24.83 25.48 24.44 29.3L24.15 32.44C24.05 33.84 24.27 35.02 24.46 36.07L24.48 36.15C24.87 38.18 25.18 39.78 22.04 41.18C20.55 41.83 19.55 41.88 18.78 41.58ZM18.03 13.11C15.33 12.06 12.4 12.13 9.77996 13.3C7.13996 14.44 5.10996 16.56 4.05996 19.26C3.00996 21.96 3.07996 24.89 4.24996 27.51C5.68996 30.82 8.20996 32.49 10.88 34.26L11.13 34.43C12.17 35.11 13.25 35.81 14.32 36.64C15.44 37.53 16.18 38.5 16.82 39.36L16.88 39.44C18.09 41.07 18.96 42.25 21.94 40.96C24.9 39.64 24.62 38.2 24.24 36.2L24.22 36.11C24.03 35.05 23.81 33.85 23.91 32.42L24.2 29.27C24.59 25.48 25.02 21.19 23.98 18.82C22.84 16.18 20.72 14.15 18.03 13.1V13.11ZM10.94 17.19C10.76 17.12 10.62 16.98 10.55 16.8C10.47 16.64 10.46 16.44 10.53 16.26C10.6 16.08 10.74 15.94 10.92 15.87C12.82 15.01 15.05 14.96 17.01 15.72C18.97 16.48 20.57 18 21.43 19.96C21.58 20.3 21.41 20.74 21.07 20.89C20.88 20.97 20.68 20.97 20.49 20.89C20.31 20.82 20.18 20.68 20.12 20.51C19.42 18.92 18.13 17.69 16.5 17.05C14.87 16.41 13.09 16.45 11.49 17.15C11.32 17.23 11.12 17.24 10.94 17.17V17.19ZM16.92 15.96C15.02 15.22 12.86 15.27 11.01 16.1C10.89 16.15 10.8 16.23 10.76 16.35C10.72 16.47 10.72 16.59 10.77 16.7C10.82 16.82 10.91 16.91 11.02 16.96C11.13 17 11.26 17 11.37 16.94C13.03 16.21 14.88 16.17 16.57 16.83C18.26 17.49 19.6 18.77 20.33 20.43C20.37 20.55 20.46 20.63 20.57 20.68H20.58C20.7 20.73 20.83 20.73 20.95 20.68C21.17 20.58 21.28 20.3 21.18 20.08C20.34 18.18 18.82 16.72 16.9 15.97L16.92 15.96Z" fill="#3D6D4A"/>
<path d="M39.43 21.4C39.35 21.13 39.35 20.94 39.32 20.75C39.28 19.49 40.01 18.73 40.62 18.31C40.85 18.16 41.08 18.08 41.38 17.97C42.37 17.7 43.09 17.17 43.44 16.41C43.97 15.27 43.59 13.93 43.29 13.21C43.02 12.56 42.87 11.91 42.87 11.27C42.83 8.83002 44.58 7.84001 44.66 7.80001C44.85 7.69001 44.96 7.46001 44.89 7.27001C44.85 7.04001 44.66 6.89001 44.43 6.89001H36.58C36.5 6.89001 36.43 6.93001 36.35 6.97001C36.24 7.01001 34.03 8.27002 34.06 11.31C34.06 12.07 34.25 12.87 34.56 13.63C34.79 14.16 35.13 15.23 34.75 16.03C34.52 16.53 34.03 16.87 33.3 17.06C32.92 17.17 32.58 17.33 32.27 17.52C31.58 17.98 30.44 18.97 30.52 20.8C30.52 21.07 30.56 21.33 30.63 21.64C30.86 22.52 31.24 25.53 26.82 27.28C26.59 27.36 26.48 27.58 26.52 27.81C26.56 28.04 26.75 28.19 26.98 28.19H34.83C34.91 28.19 34.94 28.19 35.02 28.15C40.31 26.09 39.63 22.17 39.44 21.41L39.43 21.4ZM30.14 27.19H29.04C32.32 25.06 31.74 22.01 31.59 21.36C31.51 21.13 31.51 20.9 31.48 20.71C31.44 19.45 32.17 18.69 32.78 18.27C33.01 18.12 33.24 18.04 33.54 17.93C34.53 17.66 35.25 17.13 35.6 16.37C36.13 15.23 35.75 13.89 35.45 13.17C35.18 12.52 35.03 11.87 35.03 11.23C34.99 9.10001 36.36 8.07001 36.74 7.80001H38.04C37.43 8.37001 36.59 9.48001 36.63 11.23C36.63 11.95 36.82 12.68 37.09 13.36C37.47 14.43 38.16 16.75 35.45 17.51C35.15 17.59 34.84 17.74 34.57 17.89C33.92 18.31 32.97 19.19 33.05 20.75C33.05 21.02 33.09 21.25 33.16 21.47C33.35 22.23 33.85 25.24 30.15 27.18L30.14 27.19ZM34.79 27.19H32.01C35.7 25.25 35.25 22.24 35.06 21.48C34.98 21.25 34.95 20.98 34.95 20.76C34.87 19.2 35.83 18.32 36.47 17.9C36.74 17.71 37.04 17.6 37.35 17.52C40.02 16.76 39.33 14.4 38.95 13.44C38.65 12.75 38.49 12.03 38.49 11.31C38.49 9.56002 39.29 8.45001 39.9 7.88001H43.14C42.53 8.57001 41.88 9.67002 41.92 11.31C41.92 12.07 42.11 12.87 42.42 13.63C42.65 14.16 42.99 15.23 42.61 16.03C42.38 16.53 41.89 16.87 41.16 17.06C40.78 17.17 40.44 17.33 40.13 17.52C39.44 17.98 38.3 18.97 38.38 20.8C38.38 21.07 38.42 21.33 38.49 21.64C38.72 22.52 39.1 25.49 34.8 27.2L34.79 27.19Z" fill="#3D6D4A"/>
<path d="M56.49 8.67999C56.45 8.44999 56.26 8.29999 56.03 8.29999H48.15C48.07 8.29999 48 8.33999 47.92 8.37999C47.81 8.41999 45.6 9.67999 45.63 12.72C45.63 13.48 45.82 14.28 46.13 15.04C46.36 15.57 46.7 16.64 46.32 17.44C46.09 17.94 45.6 18.28 44.87 18.47C44.49 18.58 44.15 18.74 43.84 18.93C43.15 19.39 42.01 20.38 42.09 22.21C42.09 22.48 42.13 22.74 42.2 23.05C42.43 23.93 42.81 26.94 38.39 28.69C38.16 28.77 38.05 28.99 38.09 29.22C38.13 29.45 38.32 29.6 38.55 29.6H46.4C46.48 29.6 46.51 29.6 46.59 29.56C51.88 27.5 51.16 23.58 50.97 22.82C50.89 22.59 50.89 22.36 50.86 22.17C50.82 20.91 51.55 20.15 52.16 19.73C52.39 19.58 52.62 19.5 52.92 19.39C53.91 19.12 54.63 18.59 54.98 17.83C55.51 16.69 55.13 15.35 54.83 14.63C54.56 13.98 54.41 13.33 54.41 12.69C54.37 10.25 56.12 9.25999 56.2 9.21999C56.43 9.13999 56.54 8.90999 56.51 8.68999L56.49 8.67999ZM41.71 28.6H40.61C43.85 26.47 43.31 23.42 43.16 22.77C43.08 22.54 43.08 22.31 43.05 22.12C43.01 20.86 43.74 20.1 44.35 19.68C44.58 19.53 44.81 19.45 45.11 19.34C46.1 19.07 46.82 18.54 47.17 17.78C47.7 16.64 47.32 15.3 47.02 14.58C46.75 14.01 46.6 13.32 46.6 12.71C46.56 10.58 47.93 9.54999 48.31 9.27999H49.61C49 9.84999 48.16 10.96 48.2 12.71C48.2 13.43 48.39 14.16 48.66 14.84C49.08 15.83 49.76 18.15 47.06 18.92C46.76 19 46.45 19.15 46.18 19.3C45.53 19.72 44.58 20.6 44.66 22.16C44.66 22.43 44.7 22.66 44.77 22.88C44.96 23.64 45.42 26.65 41.72 28.59L41.71 28.6ZM53.48 12.72C53.48 13.48 53.67 14.28 53.98 15.04C54.21 15.57 54.55 16.64 54.17 17.44C53.94 17.94 53.45 18.28 52.72 18.47C52.34 18.58 52 18.74 51.69 18.93C51 19.39 49.86 20.38 49.94 22.21C49.94 22.48 49.98 22.74 50.05 23.05C50.28 23.93 50.66 26.9 46.32 28.65H43.54C47.23 26.71 46.78 23.7 46.59 22.94C46.51 22.71 46.48 22.44 46.48 22.22C46.4 20.66 47.36 19.78 48 19.36C48.27 19.17 48.57 19.06 48.88 18.98C51.55 18.22 50.86 15.86 50.48 14.9C50.18 14.21 50.02 13.49 50.02 12.77C50.02 11.02 50.82 9.90999 51.43 9.33999H54.67C54.1 9.98999 53.45 11.09 53.49 12.73L53.48 12.72Z" fill="#3D6D4A"/>
</g>
</g>
<defs>
<clipPath id="clip0_14302_1406">
<rect width="56" height="56" fill="white" transform="translate(0.5)"/>
</clipPath>
<clipPath id="clip1_14302_1406">
<rect width="56" height="56" fill="white" transform="translate(0.5)"/>
</clipPath>
</defs>
</svg>
