<svg width="57" height="56" viewBox="0 0 57 56" fill="none" xmlns="http://www.w3.org/2000/svg">
<g clip-path="url(#clip0_14302_269)">
<path d="M33.76 27.11C33.54 27.49 33.67 27.98 34.05 28.2L34.74 28.6C34.87 28.67 35 28.71 35.14 28.71C35.42 28.71 35.68 28.57 35.83 28.31C36.05 27.93 35.92 27.44 35.54 27.22L34.85 26.82C34.47 26.6 33.98 26.73 33.76 27.11Z" fill="#3D6D4A"/>
<path d="M37.51 30.2L38.2 30.6C38.33 30.67 38.46 30.71 38.6 30.71C38.88 30.71 39.14 30.57 39.29 30.31C39.51 29.93 39.38 29.44 39 29.22L38.31 28.82C37.93 28.6 37.44 28.73 37.22 29.11C37 29.49 37.13 29.98 37.51 30.2Z" fill="#3D6D4A"/>
<path d="M41.76 30.81C41.38 30.59 40.89 30.72 40.67 31.1C40.45 31.48 40.58 31.97 40.96 32.19L41.65 32.59C41.78 32.66 41.91 32.7 42.05 32.7C42.33 32.7 42.59 32.56 42.74 32.3C42.96 31.92 42.83 31.43 42.45 31.21L41.76 30.81Z" fill="#3D6D4A"/>
<path d="M38.87 25.12C38.43 25.12 38.07 25.48 38.07 25.92C38.07 26.36 38.43 26.72 38.87 26.72H39.67C40.11 26.72 40.47 26.36 40.47 25.92C40.47 25.48 40.11 25.12 39.67 25.12H38.87Z" fill="#3D6D4A"/>
<path d="M43.66 26.71C44.1 26.71 44.46 26.35 44.46 25.91C44.46 25.47 44.1 25.11 43.66 25.11H42.86C42.42 25.11 42.06 25.47 42.06 25.91C42.06 26.35 42.42 26.71 42.86 26.71H43.66Z" fill="#3D6D4A"/>
<path d="M38.2 21.24L37.51 21.64C37.13 21.86 37 22.35 37.22 22.73C37.37 22.99 37.64 23.13 37.91 23.13C38.05 23.13 38.18 23.1 38.31 23.02L39 22.62C39.38 22.4 39.51 21.91 39.29 21.53C39.07 21.15 38.58 21.02 38.2 21.24Z" fill="#3D6D4A"/>
<path d="M41.66 19.24L40.97 19.64C40.59 19.86 40.46 20.35 40.68 20.73C40.83 20.99 41.1 21.13 41.37 21.13C41.51 21.13 41.64 21.1 41.77 21.02L42.46 20.62C42.84 20.4 42.97 19.91 42.75 19.53C42.53 19.15 42.04 19.02 41.66 19.24Z" fill="#3D6D4A"/>
<path d="M40.38 16.66L39.69 17.06C39.31 17.28 39.18 17.77 39.4 18.15C39.55 18.41 39.82 18.55 40.09 18.55C40.23 18.55 40.36 18.52 40.49 18.44L41.18 18.04C41.56 17.82 41.69 17.33 41.47 16.95C41.25 16.57 40.76 16.44 40.38 16.66Z" fill="#3D6D4A"/>
<path d="M12.77 28.6C15.24 27.98 17.9 28.48 19.98 29.93C18.37 31.25 17.33 33.25 17.33 35.49C17.33 36.74 17.76 38.19 18.12 39.19C18.27 39.61 18.73 39.82 19.14 39.67C19.56 39.52 19.77 39.06 19.62 38.65C19.17 37.41 18.93 36.29 18.93 35.5C18.93 32.42 21.44 29.91 24.52 29.91C25.5 29.91 26.46 30.17 27.31 30.66C27.56 30.8 27.86 30.8 28.11 30.66C28.96 30.17 29.93 29.91 30.9 29.91C33.98 29.91 36.49 32.42 36.49 35.5C36.49 38.76 32.7 45.87 29.84 45.87C29.25 45.87 28.71 45.69 28.17 45.31C27.89 45.12 27.53 45.12 27.25 45.31C26.72 45.69 26.17 45.87 25.58 45.87C24.22 45.87 22.43 44.17 20.9 41.43C20.69 41.05 20.2 40.91 19.81 41.12C19.43 41.33 19.29 41.82 19.5 42.21C19.74 42.64 20.09 43.22 20.52 43.84C18.94 45.15 16.98 45.87 14.93 45.87C10.09 45.87 6.14999 41.93 6.14999 37.09C6.14999 35.46 6.59999 33.87 7.44999 32.49C7.67999 32.11 7.56999 31.62 7.18999 31.39C6.81999 31.16 6.31999 31.27 6.08999 31.65C5.07999 33.28 4.54999 35.16 4.54999 37.09C4.54999 42.81 9.19999 47.46 14.92 47.46C17.33 47.46 19.64 46.62 21.49 45.09C22.59 46.35 24 47.46 25.56 47.46C26.3 47.46 27.02 47.27 27.69 46.9C28.36 47.27 29.07 47.46 29.82 47.46C30.57 47.46 31.36 47.17 32.11 46.68C32.32 46.8 32.55 46.89 32.8 46.94L34.39 47.23C35.25 47.39 36.12 47.47 36.98 47.47C37.96 47.47 38.94 47.37 39.92 47.16C40.35 47.07 40.63 46.65 40.54 46.22C40.45 45.79 40.03 45.51 39.6 45.6C37.97 45.94 36.32 45.96 34.69 45.66L33.57 45.46C34.41 44.58 35.19 43.48 35.85 42.32L36.77 42.08C38.45 41.63 40.03 40.84 41.36 39.78C42.73 38.71 43.84 37.39 44.67 35.86C45.38 34.56 46.31 33.38 47.42 32.35C47.42 32.35 47.47 32.31 47.48 32.3C48.21 31.77 48.74 30.98 48.97 30.07L49.41 28.37L50.86 29.07L50.51 29.8C50.01 30.85 49.84 32.1 50.01 33.4C50.01 33.42 50.01 33.45 50.01 33.47C50.14 34.86 49.85 36.25 49.17 37.47L48.17 39.27C47.42 40.63 46.43 41.83 45.24 42.85C44.39 43.57 43.45 44.17 42.45 44.64C42.05 44.83 41.88 45.3 42.07 45.7C42.21 45.99 42.49 46.16 42.79 46.16C42.9 46.16 43.02 46.14 43.13 46.08C43.72 45.8 44.3 45.48 44.85 45.12C45.48 46.51 46.86 47.47 48.46 47.47C50.66 47.47 52.45 45.68 52.45 43.48C52.45 41.74 51.31 40.27 49.75 39.73L50.57 38.25C51.4 36.74 51.76 35.04 51.6 33.4C51.6 33.36 51.6 33.31 51.59 33.26V33.23C51.44 32.2 51.56 31.28 51.94 30.5L52.29 29.77C52.67 28.98 52.34 28.04 51.56 27.65C52.22 19.96 48.37 12.52 41.67 8.64999C41.49 8.53999 41.27 8.50999 41.06 8.56999C40.86 8.61999 40.68 8.75999 40.58 8.93999L35.36 17.97C35.14 18.35 35.27 18.84 35.65 19.06C36.03 19.28 36.52 19.15 36.74 18.77L39.95 13.22C43.98 15.84 46.54 20.21 46.82 25.05C46.84 25.47 47.2 25.8 47.62 25.8C47.64 25.8 47.65 25.8 47.67 25.8C48.11 25.77 48.45 25.4 48.42 24.96C48.1 19.59 45.25 14.73 40.75 11.84L41.55 10.45C47.13 14.01 50.36 20.32 50 26.92C49.58 26.74 49.11 26.75 48.69 26.95C48.26 27.16 47.95 27.54 47.84 27.99L47.4 29.7C47.26 30.25 46.95 30.72 46.55 31.01C46.46 31.07 46.37 31.15 46.32 31.2C45.08 32.34 44.04 33.66 43.25 35.12C42.52 36.46 41.55 37.61 40.35 38.55C39.32 39.37 38.1 40 36.81 40.41C37.49 38.87 37.93 37.34 38.05 36.13L38.42 36.5C38.58 36.65 38.78 36.73 38.98 36.73C39.18 36.73 39.39 36.65 39.55 36.49C39.86 36.18 39.86 35.67 39.55 35.36L38.98 34.8C38.72 34.54 38.33 34.51 38.03 34.68C37.62 31.22 34.75 28.52 31.22 28.36L35.15 21.56C35.37 21.18 35.24 20.69 34.86 20.47C34.48 20.25 33.99 20.38 33.77 20.76L31.7 24.35C31.7 24.25 31.68 24.15 31.65 24.06C31.49 23.65 31.02 23.45 30.61 23.61L29.68 23.98C28.64 24.4 27.83 25.17 27.34 26.11C26.69 25.05 25.68 24.29 24.47 23.98L22.92 23.58C22.49 23.47 22.06 23.73 21.95 24.15C21.63 25.39 21.81 26.68 22.46 27.78C22.62 28.05 22.8 28.28 23 28.51C22.45 28.63 21.93 28.81 21.44 29.05C19.6 27.56 17.32 26.74 14.95 26.74C14.32 26.74 13.69 26.8 13.07 26.92L13.34 25.28C13.41 24.85 13.12 24.43 12.68 24.36C12.24 24.28 11.83 24.58 11.76 25.02L11.48 26.67C10.46 25.27 8.81999 24.35 6.95999 24.35H5.35999C4.91999 24.35 4.55999 24.71 4.55999 25.15C4.55999 28.23 7.06999 30.74 10.15 30.74H11.75C12.15 30.74 12.46 30.45 12.52 30.07L12.77 28.63V28.6ZM10.15 29.11C8.21999 29.11 6.60999 27.74 6.23999 25.92H6.95999C8.88999 25.92 10.5 27.29 10.87 29.11H10.15ZM30.26 25.44L31.2 25.07C31.2 25.07 31.27 25.02 31.31 25L29.28 28.51C29 28.58 28.73 28.66 28.46 28.76C28.2 27.38 28.95 25.98 30.27 25.45L30.26 25.44ZM24.06 25.5C25.5 25.87 26.45 27.17 26.45 28.59L25.77 28.42C24.33 28.05 23.38 26.75 23.38 25.33L24.06 25.5ZM48.46 45.87C47.39 45.87 46.47 45.15 46.18 44.15C46.21 44.12 46.25 44.1 46.28 44.07C47.29 43.21 48.17 42.22 48.91 41.13C50.02 41.34 50.86 42.31 50.86 43.47C50.86 44.79 49.79 45.86 48.47 45.86L48.46 45.87Z" fill="#3D6D4A"/>
<path d="M47.27 38.33L48.27 36.53C48.48 36.14 48.34 35.66 47.96 35.45C47.58 35.24 47.09 35.38 46.88 35.76L45.88 37.56C44.65 39.79 42.64 41.49 40.23 42.33C39.15 42.71 38.03 42.91 36.88 42.92C36.44 42.92 36.09 43.29 36.09 43.73C36.09 44.17 36.45 44.52 36.89 44.52C38.21 44.51 39.51 44.28 40.75 43.84C43.53 42.86 45.84 40.91 47.26 38.33H47.27Z" fill="#3D6D4A"/>
<path d="M11.74 42.68C11.74 43.12 11.38 43.48 10.94 43.48C10.5 43.48 10.14 43.12 10.14 42.68C10.14 42.24 10.5 41.88 10.94 41.88C11.38 41.88 11.74 42.24 11.74 42.68Z" fill="#3D6D4A"/>
<path d="M14.93 42.68C14.93 43.12 14.57 43.48 14.13 43.48C13.69 43.48 13.33 43.12 13.33 42.68C13.33 42.24 13.69 41.88 14.13 41.88C14.57 41.88 14.93 42.24 14.93 42.68Z" fill="#3D6D4A"/>
<path d="M11.74 39.49C11.74 39.93 11.38 40.29 10.94 40.29C10.5 40.29 10.14 39.93 10.14 39.49C10.14 39.05 10.5 38.69 10.94 38.69C11.38 38.69 11.74 39.05 11.74 39.49Z" fill="#3D6D4A"/>
<path d="M33.29 35.5C33.29 35.94 33.65 36.3 34.09 36.3C34.53 36.3 34.89 35.94 34.89 35.5C34.89 33.3 33.1 31.51 30.9 31.51C30.46 31.51 30.1 31.87 30.1 32.31C30.1 32.75 30.46 33.11 30.9 33.11C32.22 33.11 33.29 34.18 33.29 35.5Z" fill="#3D6D4A"/>
</g>
<defs>
<clipPath id="clip0_14302_269">
<rect width="56" height="56" fill="white" transform="translate(0.5)"/>
</clipPath>
</defs>
</svg>
