<svg width="57" height="56" viewBox="0 0 57 56" fill="none" xmlns="http://www.w3.org/2000/svg">
<g clip-path="url(#clip0_14302_1495)">
<path d="M32.96 21.46C32.71 21.21 32.34 21.21 32.09 21.46C25.89 27.28 25.46 40.36 25.46 40.91C25.46 41.28 25.71 41.53 26.08 41.53C26.39 41.53 26.7 41.28 26.7 40.91C26.7 40.79 27.07 27.84 32.96 22.32C33.21 22.13 33.21 21.7 32.96 21.45V21.46Z" fill="#3D6D4A"/>
<path d="M22.77 32.15C23.9 32.43 24.69 33.16 24.54 33.79C24.39 34.42 23.34 34.71 22.21 34.43C21.08 34.15 20.29 33.42 20.44 32.79C20.59 32.16 21.64 31.87 22.77 32.15Z" fill="#3D6D4A"/>
<path d="M31.0599 34.82C32.1899 35.1 32.9799 35.83 32.8299 36.46C32.6799 37.09 31.6299 37.38 30.4999 37.1C29.3699 36.82 28.5799 36.09 28.7299 35.46C28.8799 34.83 29.9299 34.54 31.0599 34.82Z" fill="#3D6D4A"/>
<path d="M23.6301 28.57C24.5301 28.79 25.1601 29.37 25.0301 29.87C24.9101 30.37 24.0801 30.6 23.1801 30.38C22.2801 30.16 21.6501 29.58 21.7801 29.08C21.9001 28.58 22.7301 28.36 23.6301 28.57Z" fill="#3D6D4A"/>
<path d="M31.9 31.26C32.8 31.48 33.43 32.06 33.3 32.56C33.17 33.06 32.35 33.29 31.45 33.07C30.55 32.85 29.92 32.27 30.05 31.77C30.17 31.27 31 31.05 31.9 31.26Z" fill="#3D6D4A"/>
<path d="M33.03 27.67C33.93 27.89 34.56 28.47 34.43 28.97C34.31 29.47 33.48 29.7 32.58 29.48C31.68 29.26 31.05 28.68 31.18 28.18C31.3 27.68 32.13 27.45 33.03 27.67Z" fill="#3D6D4A"/>
<path d="M25.43 25.01C26.31 25.3 26.88 25.94 26.72 26.42C26.56 26.91 25.71 27.06 24.84 26.77C23.96 26.48 23.39 25.84 23.55 25.36C23.71 24.87 24.56 24.72 25.43 25.01Z" fill="#3D6D4A"/>
<path d="M27.7001 22.11C28.5301 22.52 29.0101 23.23 28.7801 23.69C28.5501 24.15 27.6901 24.18 26.8701 23.77C26.0401 23.36 25.5601 22.65 25.7901 22.19C26.0201 21.73 26.8801 21.7 27.7001 22.11Z" fill="#3D6D4A"/>
<path d="M34.82 24.68C35.61 24.91 36.15 25.45 36.02 25.87C35.89 26.3 35.15 26.46 34.37 26.22C33.58 25.99 33.04 25.45 33.17 25.03C33.3 24.6 34.04 24.45 34.82 24.68Z" fill="#3D6D4A"/>
<path d="M36.1299 21.08C36.9499 21.13 37.5899 21.53 37.5699 21.97C37.5399 22.41 36.8599 22.74 36.0399 22.69C35.2199 22.64 34.5799 22.24 34.5999 21.8C34.6299 21.36 35.3099 21.03 36.1299 21.08Z" fill="#3D6D4A"/>
<path d="M29.8899 19.42C30.6199 19.98 30.9599 20.77 30.6499 21.18C30.3399 21.59 29.4899 21.46 28.7599 20.89C28.0299 20.33 27.6899 19.54 27.9999 19.13C28.3099 18.72 29.1599 18.85 29.8899 19.42Z" fill="#3D6D4A"/>
<path d="M35.18 17.32C35.61 17.6 35.56 18.45 35.07 19.23C34.57 20.01 33.82 20.42 33.39 20.14C32.96 19.86 33.01 19.01 33.5 18.23C34 17.45 34.75 17.04 35.18 17.32Z" fill="#3D6D4A"/>
<path d="M40.46 4.43H16.54C16.17 4.43 15.92 4.68 15.92 5.05V8.77L13.19 14.78C12.76 15.77 12.51 16.82 12.51 17.94V50.95C12.51 51.32 12.76 51.57 13.13 51.57H43.86C44.23 51.57 44.48 51.32 44.48 50.95V17.87C44.48 16.76 44.23 15.7 43.8 14.71L41.07 8.7V4.98C41.07 4.67 40.76 4.42 40.45 4.42L40.46 4.43ZM17.16 5.67H39.77V8.21H17.16V5.67ZM42.69 15.27C43.06 16.08 43.25 17 43.25 17.87V50.27H13.75V17.87C13.75 16.94 13.94 16.07 14.31 15.27L16.97 9.45H40.02L42.68 15.27H42.69Z" fill="#3D6D4A"/>
</g>
<defs>
<clipPath id="clip0_14302_1495">
<rect width="56" height="56" fill="white" transform="translate(0.5)"/>
</clipPath>
</defs>
</svg>
