<svg width="57" height="56" viewBox="0 0 57 56" fill="none" xmlns="http://www.w3.org/2000/svg">
<g clip-path="url(#clip0_14302_1561)">
<path d="M29.6099 21.21C32.7599 15.36 26.5399 13.03 30.9399 6.75C30.9399 6.75 28.2899 7.83 27.3999 9.5C24.2199 15.35 30.7399 17.74 26.0699 23.96C26.0699 23.96 28.7199 22.88 29.6099 21.21Z" fill="#3D6D4A"/>
<path d="M22.5 19.73C24.85 15.36 20.21 13.62 23.49 8.92999C23.49 8.92999 21.51 9.73999 20.84 10.99C18.47 15.36 23.33 17.14 19.85 21.79C19.85 21.79 21.82 20.98 22.5 19.73Z" fill="#3D6D4A"/>
<path d="M36.16 19.73C38.51 15.36 33.87 13.62 37.15 8.92999C37.15 8.92999 35.17 9.73999 34.5 10.99C32.13 15.36 36.99 17.14 33.51 21.79C33.51 21.79 35.49 20.98 36.16 19.73Z" fill="#3D6D4A"/>
<path d="M28.0799 49.25C28.2199 49.25 28.3599 49.25 28.4999 49.25C47.8699 49.22 54.0899 47.26 54.0799 41.2C54.0799 38.32 52.7499 32.99 43.8899 29.61C43.4999 29.46 43.0699 29.54 42.7499 29.8C41.5299 30.88 40.4399 32.1 39.4999 33.43C39.6399 32.21 40.0299 31.03 40.6299 29.95C40.8099 29.64 40.8399 29.26 40.6999 28.93C40.5599 28.6 40.2699 28.35 39.9199 28.27C39.5199 28.17 39.1599 28.07 38.7999 27.98C37.1499 27.5 35.4599 27.21 33.7499 27.12C33.4199 27.1 33.1099 27.22 32.8799 27.45C31.7199 28.61 29.6299 31.87 28.2199 35C28.2899 32.73 28.7499 30.48 29.5799 28.37C29.7099 28.02 29.6599 27.63 29.4399 27.32C29.2299 27.01 28.8699 26.83 28.4999 26.84C28.2799 26.84 28.0399 26.84 27.7799 26.84C25.5799 26.77 23.3799 26.96 21.2299 27.41C21.0799 27.45 20.9299 27.52 20.8099 27.61C19.6599 28.48 18.2299 30.72 17.1099 32.96C17.1299 31.97 17.3599 30.99 17.7999 30.09C18.0199 29.69 17.9799 29.2 17.6999 28.85C17.4199 28.5 16.9599 28.34 16.5199 28.45C7.99994 30.66 2.91994 35.43 2.91994 41.21C2.85994 42.76 3.44994 44.26 4.53994 45.36C7.34994 48.16 13.9599 49.26 28.0799 49.26V49.25ZM15.0299 31.25C14.5699 33.67 14.9999 36.32 15.2299 37.78L15.2899 38.13C15.3699 38.69 15.8599 39.1 16.4299 39.09C16.9899 39.09 17.4699 38.66 17.5399 38.1C17.7899 36.24 20.4699 30.96 22.0199 29.54C23.6299 29.22 25.2799 29.07 26.9199 29.09C25.5999 33.35 25.5899 36.98 26.8999 39.91C27.1099 40.37 27.5999 40.65 28.0999 40.57C28.5999 40.5 28.9999 40.1 29.0699 39.6C29.4499 36.74 32.5599 31.32 34.1499 29.41C35.4599 29.51 36.7599 29.74 38.0299 30.11C36.7799 33.22 37.1099 36.65 37.3399 38.11C37.4299 38.67 37.9099 39.08 38.4799 39.07C39.0499 39.06 39.5199 38.64 39.5899 38.08C39.7599 36.79 41.8599 33.73 43.7299 31.96C50.7399 34.85 51.8199 38.95 51.8199 41.18C51.8199 44.81 48.0099 46.92 28.5099 46.95C15.2999 46.96 8.41994 45.97 6.15994 43.71C5.49994 43.04 5.14994 42.12 5.20994 41.17C5.20994 36.94 8.84994 33.3 15.0499 31.22L15.0299 31.25Z" fill="#3D6D4A"/>
</g>
<defs>
<clipPath id="clip0_14302_1561">
<rect width="56" height="56" fill="white" transform="translate(0.5)"/>
</clipPath>
</defs>
</svg>
