<svg width="57" height="56" viewBox="0 0 57 56" fill="none" xmlns="http://www.w3.org/2000/svg">
<g clip-path="url(#clip0_14302_1336)">
<path d="M44.3601 29.08C44.1301 29.09 43.9401 29.25 43.8901 29.47L39.6101 45.72C37.7801 47.78 33.0501 48.98 28.2901 48.96C23.5301 48.94 18.7901 47.72 16.9101 45.71L12.9801 30.72C12.9501 30.58 12.8601 30.46 12.7401 30.39C12.6201 30.32 12.4801 30.3 12.3401 30.33C12.2001 30.37 12.0901 30.45 12.0201 30.58C11.9501 30.7 11.9301 30.85 11.9701 30.98L15.9501 46.14C15.9701 46.22 16.0101 46.29 16.0701 46.36C18.3401 48.88 23.3201 49.99 28.2901 50C33.2601 50.02 38.2301 48.94 40.4601 46.35C40.5101 46.29 40.5501 46.22 40.5701 46.15L44.8901 29.74C44.9301 29.58 44.8901 29.41 44.7901 29.28C44.6901 29.15 44.5201 29.08 44.3601 29.09V29.08Z" fill="#3D6D4A"/>
<path d="M28.4 50.13H28.29C22.64 50.11 18.03 48.74 15.98 46.45C15.91 46.37 15.86 46.28 15.84 46.18L11.86 31.02C11.81 30.86 11.83 30.68 11.92 30.53C12 30.38 12.15 30.27 12.32 30.22C12.49 30.18 12.67 30.2 12.82 30.29C12.97 30.38 13.08 30.53 13.11 30.7L17.04 45.66C18.83 47.55 23.35 48.83 28.3 48.85H28.39C33.33 48.85 37.78 47.58 39.5 45.67L43.77 29.44C43.84 29.17 44.07 28.97 44.36 28.95C44.56 28.94 44.77 29.03 44.9 29.19C45 29.31 45.04 29.46 45.04 29.61H45.06L45.02 29.77L40.7 46.18C40.67 46.27 40.63 46.36 40.56 46.43L40.34 46.68C38.23 48.87 33.92 50.12 28.41 50.12L28.4 50.13ZM12.47 30.45C12.47 30.45 12.4 30.45 12.37 30.46C12.27 30.49 12.18 30.55 12.13 30.65C12.08 30.74 12.06 30.85 12.09 30.95L16.07 46.11C16.09 46.17 16.12 46.23 16.16 46.28C18.17 48.52 22.7 49.86 28.28 49.88H28.39C33.95 49.88 38.42 48.53 40.36 46.27L40.38 46.25C40.38 46.25 40.43 46.16 40.45 46.11L44.73 29.86L44.77 29.7C44.8 29.58 44.77 29.45 44.7 29.35C44.62 29.25 44.5 29.2 44.37 29.2C44.2 29.21 44.05 29.33 44.01 29.5L39.7 45.81C37.95 47.78 33.41 49.09 28.38 49.09H28.29C23.25 49.07 18.64 47.75 16.82 45.8L16.8 45.78V45.75L12.86 30.76C12.84 30.65 12.77 30.56 12.68 30.51C12.62 30.47 12.55 30.45 12.48 30.45H12.47Z" fill="#3D6D4A"/>
<path d="M26.41 12.61C26.41 12.61 26.32 12.61 26.27 12.62C23.48 13.23 21.16 14.46 19.8 16.16C17.67 16.37 15.77 17.1 14.39 18.21C12.97 19.35 12.07 20.9 12.07 22.61C12.07 23.39 12.37 24.14 12.74 24.86C11.54 25.76 10.75 26.91 10.75 28.17C10.75 29.72 11.8 31.05 13.36 31.97C14.91 32.89 17 33.43 19.3 33.43C20.53 33.43 21.73 33.25 22.84 32.94C24.25 33.25 25.77 33.43 27.32 33.43C29.82 33.43 32.21 33 34.14 32.22C35.24 32.6 36.42 32.82 37.63 32.83C39.98 32.83 42.11 32.12 43.68 30.94C45.25 29.76 46.27 28.09 46.27 26.22C46.27 25.01 45.97 23.8 45.22 22.77C44.51 21.8 43.37 21.01 41.82 20.46C41.02 17.05 38.82 14.92 36.49 13.72C36.37 13.65 36.22 13.63 36.09 13.67C35.96 13.71 35.84 13.8 35.78 13.93C35.72 14.06 35.7 14.2 35.75 14.33C35.8 14.46 35.89 14.57 36.02 14.63C38.22 15.76 40.23 17.67 40.9 20.92C40.94 21.1 41.07 21.25 41.25 21.31C42.81 21.81 43.79 22.53 44.39 23.36C44.99 24.19 45.24 25.15 45.24 26.2C45.24 27.69 44.44 29.06 43.07 30.09C41.7 31.12 39.78 31.77 37.64 31.77C36.48 31.77 35.33 31.57 34.29 31.19C34.17 31.15 34.03 31.15 33.91 31.2C32.13 31.94 29.77 32.37 27.33 32.37C25.81 32.37 24.32 32.2 22.97 31.89C22.88 31.87 22.79 31.87 22.71 31.9C21.66 32.21 20.49 32.37 19.31 32.37C17.17 32.37 15.25 31.85 13.9 31.05C12.55 30.25 11.8 29.22 11.8 28.15C11.8 27.2 12.4 26.24 13.61 25.43C13.84 25.28 13.91 24.96 13.77 24.72C13.35 24.03 13.13 23.31 13.13 22.58C13.13 21.24 13.83 19.98 15.07 18.99C16.3 18 18.06 17.29 20.09 17.12C20.24 17.11 20.37 17.03 20.46 16.91C21.57 15.42 23.79 14.2 26.52 13.6C26.78 13.55 26.96 13.31 26.94 13.05C26.92 12.79 26.7 12.58 26.44 12.57L26.41 12.61Z" fill="#3D6D4A"/>
<path d="M27.32 33.56C25.79 33.56 24.29 33.39 22.84 33.07C19.41 34.02 15.74 33.53 13.29 32.08C11.57 31.07 10.62 29.68 10.62 28.18C10.62 26.98 11.3 25.83 12.58 24.84C12.28 24.23 11.95 23.45 11.94 22.62C11.94 20.95 12.78 19.35 14.31 18.12C15.7 17 17.63 16.26 19.73 16.05C21.09 14.39 23.4 13.13 26.24 12.51C26.29 12.5 26.35 12.49 26.41 12.49H26.53V12.51C26.8 12.57 27.01 12.8 27.03 13.09C27.06 13.42 26.83 13.71 26.51 13.77C23.81 14.36 21.63 15.55 20.52 17.03C20.41 17.18 20.24 17.27 20.06 17.29C18.14 17.45 16.38 18.11 15.11 19.13C13.9 20.11 13.23 21.35 13.22 22.62C13.22 23.33 13.43 24.03 13.84 24.7C14.02 24.99 13.94 25.39 13.65 25.58C12.52 26.33 11.9 27.25 11.9 28.19C11.9 29.22 12.62 30.21 13.94 30.99C15.34 31.82 17.29 32.29 19.29 32.29C20.45 32.29 21.61 32.13 22.66 31.82C22.77 31.79 22.88 31.78 22.98 31.81C24.33 32.12 25.83 32.28 27.32 32.28C29.74 32.28 32.06 31.87 33.85 31.12C34 31.06 34.17 31.05 34.32 31.11L34.4 31.14C35.41 31.5 36.52 31.68 37.62 31.68C39.65 31.68 41.55 31.09 42.97 30.03C44.34 29 45.09 27.66 45.09 26.24C45.09 25.14 44.82 24.23 44.26 23.47C43.61 22.58 42.6 21.92 41.18 21.47C40.96 21.4 40.79 21.22 40.75 20.99C40.18 18.23 38.56 16.14 35.93 14.78C35.78 14.71 35.65 14.57 35.6 14.41C35.55 14.25 35.56 14.06 35.64 13.91C35.72 13.76 35.86 13.64 36.03 13.59C36.2 13.54 36.38 13.56 36.53 13.65C38.49 14.66 41.01 16.65 41.91 20.4C43.44 20.95 44.58 21.73 45.31 22.73C46.02 23.71 46.38 24.89 46.38 26.26C46.38 28.07 45.42 29.82 43.75 31.08C42.11 32.31 39.93 32.99 37.63 32.99H37.51C36.41 32.97 35.28 32.77 34.15 32.39C32.21 33.16 29.79 33.59 27.33 33.59L27.32 33.56ZM22.83 32.81H22.86C24.3 33.14 25.8 33.3 27.31 33.31C29.76 33.31 32.17 32.89 34.08 32.11L34.12 32.09H34.16C35.32 32.5 36.48 32.7 37.6 32.7H37.72C39.93 32.68 42.01 32.02 43.58 30.84C45.21 29.61 46.12 27.97 46.12 26.22C46.12 24.91 45.77 23.77 45.09 22.84C44.39 21.88 43.26 21.11 41.75 20.58L41.69 20.56L41.67 20.49C40.81 16.79 38.33 14.83 36.4 13.83C36.3 13.77 36.19 13.76 36.09 13.79C35.99 13.82 35.9 13.89 35.85 13.99C35.8 14.09 35.79 14.2 35.83 14.3C35.87 14.4 35.94 14.48 36.04 14.53C38.75 15.92 40.41 18.07 40.99 20.91C41.02 21.05 41.12 21.16 41.26 21.2C42.73 21.67 43.78 22.36 44.47 23.3C45.06 24.11 45.34 25.06 45.35 26.22C45.35 27.72 44.56 29.14 43.13 30.21C41.67 31.31 39.71 31.91 37.63 31.91C36.47 31.91 35.3 31.71 34.24 31.32H34.22C34.13 31.29 34.04 31.29 33.96 31.32C32.13 32.08 29.78 32.5 27.33 32.5C25.82 32.5 24.3 32.33 22.94 32.02C22.88 32.01 22.81 32.01 22.74 32.02C21.67 32.33 20.48 32.5 19.3 32.5C17.26 32.5 15.26 32.01 13.82 31.17C12.43 30.35 11.66 29.28 11.66 28.16C11.66 27.13 12.33 26.13 13.53 25.34C13.71 25.22 13.76 24.98 13.65 24.8C13.22 24.1 12.99 23.35 12.99 22.59C12.99 21.24 13.7 19.93 14.97 18.9C16.28 17.85 18.09 17.17 20.06 17.01C20.17 17.01 20.27 16.94 20.34 16.85C21.48 15.32 23.72 14.1 26.48 13.49C26.68 13.45 26.81 13.27 26.8 13.07C26.78 12.87 26.62 12.72 26.42 12.71H26.31C23.5 13.33 21.23 14.57 19.91 16.21L19.88 16.25H19.83C17.75 16.46 15.85 17.18 14.48 18.28C13.02 19.46 12.21 20.98 12.21 22.58C12.21 23.4 12.56 24.18 12.87 24.78L12.92 24.87L12.84 24.93C11.96 25.59 10.9 26.69 10.9 28.14C10.9 29.55 11.8 30.86 13.44 31.83C15.85 33.25 19.46 33.72 22.83 32.79H22.86L22.83 32.81Z" fill="#3D6D4A"/>
<path d="M28.27 34.33C28.13 34.33 28 34.39 27.91 34.49C27.81 34.59 27.76 34.72 27.76 34.86L27.73 45.47C27.73 45.61 27.78 45.74 27.88 45.84C27.98 45.94 28.11 45.99 28.25 45.99C28.39 45.99 28.52 45.93 28.62 45.84C28.72 45.74 28.77 45.61 28.77 45.47L28.8 34.85C28.8 34.71 28.75 34.58 28.65 34.48C28.55 34.38 28.42 34.33 28.28 34.33H28.27Z" fill="#3D6D4A"/>
<path d="M28.24 46.11C28.07 46.11 27.9 46.04 27.78 45.92C27.66 45.8 27.59 45.63 27.59 45.46L27.62 34.85C27.62 34.68 27.69 34.52 27.8 34.39C27.89 34.3 28.01 34.24 28.13 34.21V34.19H28.26C28.43 34.19 28.59 34.26 28.71 34.38C28.83 34.5 28.9 34.67 28.9 34.84L28.87 45.45C28.87 45.62 28.8 45.79 28.68 45.91C28.56 46.03 28.39 46.1 28.22 46.1L28.24 46.11ZM28.32 34.45H28.27C28.17 34.45 28.07 34.5 27.99 34.57C27.92 34.64 27.88 34.75 27.88 34.85L27.85 45.46C27.85 45.57 27.89 45.67 27.96 45.74C28.11 45.89 28.37 45.89 28.52 45.74C28.59 45.67 28.64 45.56 28.63 45.46L28.66 34.84C28.66 34.73 28.62 34.63 28.54 34.56C28.48 34.49 28.39 34.46 28.3 34.45H28.32Z" fill="#3D6D4A"/>
<path d="M33.5501 34.35C33.2801 34.35 33.0601 34.56 33.0401 34.82L31.9601 45.38C31.9401 45.52 31.9801 45.66 32.0601 45.77C32.1401 45.88 32.2701 45.95 32.4201 45.97C32.5601 45.98 32.7001 45.94 32.8101 45.85C32.9201 45.76 32.9801 45.63 32.9901 45.49L34.0701 34.93C34.0901 34.78 34.0401 34.63 33.9401 34.52C33.8401 34.41 33.7001 34.35 33.5501 34.35Z" fill="#3D6D4A"/>
<path d="M32.47 46.1C32.47 46.1 32.43 46.1 32.41 46.1C32.23 46.08 32.07 45.99 31.97 45.86C31.86 45.72 31.82 45.55 31.84 45.37L32.92 34.81C32.95 34.48 33.22 34.23 33.55 34.23C33.73 34.23 33.91 34.31 34.03 34.44C34.15 34.58 34.21 34.76 34.19 34.94L33.11 45.5C33.11 45.67 33.02 45.83 32.88 45.95C32.76 46.05 32.61 46.1 32.46 46.1H32.47ZM33.55 34.48C33.35 34.48 33.18 34.64 33.16 34.84L32.08 45.4C32.07 45.51 32.09 45.62 32.16 45.7C32.22 45.78 32.32 45.84 32.43 45.85C32.54 45.85 32.64 45.83 32.72 45.76C32.8 45.69 32.85 45.59 32.86 45.48L33.94 34.91C33.95 34.8 33.92 34.68 33.84 34.6C33.77 34.52 33.66 34.47 33.55 34.47V34.48Z" fill="#3D6D4A"/>
<path d="M22.95 34.35C22.8 34.35 22.67 34.42 22.57 34.53C22.47 34.64 22.43 34.79 22.44 34.93L23.52 45.49C23.53 45.63 23.6 45.75 23.71 45.84C23.82 45.93 23.95 45.97 24.09 45.95C24.23 45.94 24.35 45.87 24.44 45.76C24.53 45.65 24.57 45.52 24.55 45.38L23.47 34.82C23.45 34.55 23.22 34.34 22.94 34.35H22.95Z" fill="#3D6D4A"/>
<path d="M24.04 46.08C23.89 46.08 23.75 46.03 23.63 45.93C23.5 45.82 23.41 45.67 23.4 45.5L22.32 34.94C22.3 34.76 22.36 34.58 22.47 34.44C22.59 34.3 22.76 34.22 22.94 34.22H22.95C23.28 34.22 23.56 34.47 23.59 34.81L24.67 45.37C24.69 45.54 24.64 45.71 24.53 45.84C24.42 45.97 24.27 46.05 24.1 46.07C24.08 46.07 24.06 46.07 24.03 46.07L24.04 46.08ZM22.95 34.47C22.84 34.47 22.73 34.52 22.66 34.6C22.59 34.68 22.55 34.79 22.57 34.9L23.65 45.46C23.66 45.56 23.71 45.66 23.79 45.73C23.87 45.79 23.98 45.82 24.08 45.82C24.18 45.81 24.28 45.76 24.35 45.68C24.42 45.6 24.45 45.49 24.44 45.39L23.36 34.83C23.34 34.63 23.17 34.47 22.97 34.47H22.95Z" fill="#3D6D4A"/>
<path d="M38.9699 34.47C38.7399 34.49 38.5599 34.65 38.5099 34.87L36.0399 45.21C35.9999 45.35 36.0099 45.5 36.0899 45.62C36.1599 45.74 36.2799 45.83 36.4199 45.87C36.5599 45.91 36.7099 45.87 36.8299 45.8C36.9499 45.72 37.0299 45.6 37.0599 45.46L39.5299 35.12C39.5699 34.96 39.5299 34.79 39.4199 34.66C39.3099 34.53 39.1499 34.46 38.9799 34.48L38.9699 34.47Z" fill="#3D6D4A"/>
<path d="M36.53 46C36.53 46 36.43 46 36.38 45.98C36.21 45.94 36.06 45.83 35.97 45.67C35.88 45.52 35.86 45.33 35.91 45.16L38.38 34.83C38.44 34.56 38.67 34.35 38.95 34.33C39.14 34.33 39.36 34.4 39.49 34.56C39.62 34.72 39.67 34.93 39.62 35.14L37.15 45.47C37.12 45.64 37.02 45.79 36.87 45.89C36.76 45.96 36.64 45.99 36.52 45.99L36.53 46ZM38.98 34.59C38.81 34.6 38.67 34.73 38.63 34.9L36.16 45.24C36.13 45.35 36.14 45.46 36.19 45.56C36.24 45.65 36.33 45.72 36.44 45.75C36.54 45.77 36.66 45.75 36.75 45.7C36.84 45.64 36.9 45.54 36.92 45.44L39.4 35.1C39.43 34.98 39.4 34.84 39.32 34.75C39.24 34.65 39.11 34.59 38.99 34.61L38.98 34.59Z" fill="#3D6D4A"/>
<path d="M17.48 34.47C17.32 34.47 17.18 34.55 17.09 34.68C17 34.81 16.97 34.97 17 35.12L19.47 45.46C19.5 45.6 19.58 45.71 19.7 45.79C19.82 45.86 19.96 45.89 20.09 45.85C20.22 45.82 20.34 45.73 20.41 45.61C20.48 45.49 20.5 45.35 20.47 45.22L18 34.88C17.95 34.63 17.72 34.46 17.47 34.48L17.48 34.47Z" fill="#3D6D4A"/>
<path d="M19.98 45.98C19.86 45.98 19.74 45.95 19.64 45.88C19.5 45.79 19.39 45.64 19.35 45.48L16.88 35.15C16.83 34.96 16.88 34.77 16.99 34.61C17.11 34.45 17.28 34.36 17.48 34.35C17.79 34.35 18.07 34.55 18.14 34.85L20.61 45.18C20.65 45.35 20.63 45.52 20.54 45.67C20.45 45.82 20.3 45.92 20.14 45.96C20.09 45.97 20.04 45.98 19.99 45.98H19.98ZM17.48 34.6C17.36 34.6 17.25 34.66 17.18 34.76C17.11 34.86 17.09 34.98 17.12 35.09L19.59 45.43C19.61 45.53 19.68 45.62 19.77 45.68C19.86 45.73 19.97 45.75 20.07 45.73C20.17 45.71 20.26 45.64 20.32 45.55C20.37 45.46 20.39 45.35 20.36 45.25L17.89 34.91C17.85 34.72 17.67 34.6 17.49 34.6H17.48Z" fill="#3D6D4A"/>
<path fill-rule="evenodd" clip-rule="evenodd" d="M21.2001 23.25C18.0601 22.91 15.1401 24.94 14.4601 28.26L15.4701 28.47C16.0501 25.63 18.4401 23.99 21.0901 24.28L21.2001 23.25Z" fill="#3D6D4A"/>
<path d="M15.5701 28.62L14.3101 28.36L14.3401 28.24C15.0201 24.92 17.9201 22.76 21.2101 23.13H21.3301L21.1901 24.42H21.0701C18.4001 24.12 16.1401 25.8 15.5901 28.5L15.5701 28.62ZM14.6101 28.17L15.3801 28.33C15.9501 25.78 18.0001 24.13 20.4901 24.13C20.6501 24.13 20.8201 24.13 20.9801 24.15L21.0601 23.37C17.9901 23.11 15.3001 25.1 14.6101 28.17Z" fill="#3D6D4A"/>
<path fill-rule="evenodd" clip-rule="evenodd" d="M27.1 15.65C25.93 15.74 24.75 16.28 23.76 17.41L24.54 18.09C25.39 17.13 26.26 16.75 27.18 16.68C28.1 16.61 29.1 16.88 30.1 17.33L30.2 17.38H30.31C32.31 17.39 33.47 17.95 34.19 18.67C34.91 19.39 35.21 20.33 35.33 21.18L36.36 21.04C36.22 20.06 35.86 18.89 34.93 17.95C34 17.01 32.52 16.36 30.32 16.35C29.29 15.9 28.21 15.57 27.11 15.65H27.1Z" fill="#3D6D4A"/>
<path d="M35.22 21.32L35.2 21.2C35.06 20.18 34.69 19.36 34.1 18.76C33.27 17.93 32.03 17.51 30.31 17.51H30.15L30.05 17.45C28.98 16.96 28.01 16.74 27.19 16.81C26.2 16.88 25.39 17.32 24.63 18.18L24.55 18.27L23.58 17.42L23.66 17.33C24.61 16.25 25.8 15.62 27.09 15.52C28.05 15.45 29.05 15.66 30.34 16.22C32.38 16.24 33.95 16.79 35.01 17.85C35.8 18.64 36.29 19.71 36.47 21.01L36.49 21.13L35.22 21.31V21.32ZM30.23 17.26H30.31C32.1 17.26 33.4 17.7 34.28 18.59C34.88 19.2 35.27 20.02 35.43 21.04L36.21 20.93C36.02 19.74 35.56 18.76 34.84 18.03C33.82 17.01 32.3 16.48 30.32 16.47H30.27C29.01 15.92 28.04 15.7 27.12 15.77C25.93 15.86 24.84 16.42 23.95 17.4L24.54 17.92C25.32 17.07 26.16 16.63 27.18 16.56C28.05 16.5 29.05 16.72 30.16 17.22L30.24 17.25L30.23 17.26Z" fill="#3D6D4A"/>
<path fill-rule="evenodd" clip-rule="evenodd" d="M27.92 22.98C27.36 22.88 26.7 23.16 26.3 23.79L26.27 23.83L26.25 23.87C26.01 24.46 26.25 25.11 26.67 25.5C27.09 25.89 27.68 26.13 28.34 26.19H28.36C28.7 26.21 29.01 26.16 29.27 25.99C29.53 25.82 29.69 25.53 29.73 25.26C29.81 24.72 29.57 24.25 29.24 23.84C28.92 23.43 28.47 23.07 27.9 22.97L27.92 22.98ZM27.74 24C27.94 24.04 28.24 24.23 28.44 24.49C28.64 24.75 28.72 25.06 28.71 25.12C28.71 25.15 28.72 25.12 28.71 25.12C28.71 25.13 28.61 25.16 28.43 25.15C27.97 25.1 27.58 24.93 27.37 24.74C27.19 24.57 27.17 24.46 27.22 24.3C27.41 24.03 27.55 23.96 27.73 24H27.74Z" fill="#3D6D4A"/>
<path d="M28.5101 26.32C28.5101 26.32 28.4201 26.32 28.3701 26.32C27.6401 26.25 27.0301 26 26.6001 25.6C26.1801 25.21 25.8801 24.51 26.1501 23.83L26.2101 23.72C26.5801 23.13 27.2001 22.81 27.8101 22.84L27.9601 22.86C28.4901 22.95 28.9701 23.27 29.3701 23.77C29.7901 24.3 29.9501 24.79 29.8801 25.29C29.8301 25.62 29.6301 25.93 29.3601 26.11C29.1301 26.26 28.8501 26.33 28.5201 26.33L28.5101 26.32ZM27.7001 23.08C27.2101 23.08 26.7101 23.37 26.4101 23.85L26.3701 23.92C26.1401 24.49 26.4001 25.08 26.7601 25.41C27.1501 25.78 27.7101 26 28.3601 26.07C28.7201 26.09 28.9901 26.03 29.2101 25.89C29.4201 25.76 29.5801 25.5 29.6101 25.25C29.6701 24.82 29.5301 24.4 29.1501 23.92C28.9101 23.62 28.5101 23.23 27.9601 23.11H27.8901C27.8201 23.09 27.7501 23.08 27.6801 23.08H27.7001ZM28.7501 25.28L28.7001 25.26C28.6101 25.28 28.5001 25.28 28.4401 25.28C27.9801 25.24 27.5501 25.06 27.3001 24.83C27.1001 24.64 27.0501 24.49 27.1201 24.26L27.1401 24.22C27.3201 23.97 27.4901 23.82 27.7701 23.87L27.8701 23.9C28.1001 23.98 28.3601 24.17 28.5501 24.41C28.7401 24.65 28.8301 24.93 28.8501 25.08L28.8801 25.16L28.7501 25.29V25.28ZM27.3601 24.35C27.3301 24.45 27.3301 24.51 27.4801 24.64C27.6401 24.79 27.9901 24.97 28.4701 25.02C28.5201 25.02 28.5601 25.02 28.5901 25.02C28.5601 24.91 28.4901 24.73 28.3601 24.56C28.1601 24.31 27.8901 24.15 27.7301 24.12H27.6701C27.5901 24.12 27.5001 24.16 27.3601 24.35Z" fill="#3D6D4A"/>
<path fill-rule="evenodd" clip-rule="evenodd" d="M32.02 21.14H31.97C31.34 21.24 30.9 21.77 30.77 22.33C30.64 22.89 30.74 23.52 31.01 24.12V24.14C31.17 24.45 31.37 24.69 31.65 24.83C31.93 24.97 32.26 24.97 32.51 24.87C33.02 24.67 33.31 24.22 33.5 23.74C33.69 23.25 33.78 22.69 33.58 22.15C33.38 21.61 32.81 21.18 32.07 21.15H32.02V21.14ZM32.09 22.2C32.42 22.23 32.54 22.31 32.61 22.49C32.68 22.68 32.66 23.04 32.54 23.34C32.42 23.65 32.19 23.87 32.13 23.89C32.1 23.9 32.13 23.9 32.13 23.9C32.12 23.89 32.05 23.84 31.96 23.67C31.77 23.25 31.73 22.82 31.79 22.55C31.85 22.3 31.94 22.24 32.1 22.2H32.09Z" fill="#3D6D4A"/>
<path d="M32.12 25.07C31.93 25.07 31.75 25.03 31.59 24.95C31.31 24.81 31.09 24.56 30.91 24.21V24.18C30.6 23.54 30.52 22.89 30.65 22.31C30.78 21.75 31.23 21.14 31.96 21.03L32.17 20.98V21.03C32.88 21.09 33.48 21.51 33.7 22.11C33.88 22.61 33.86 23.19 33.62 23.79C33.37 24.41 33.03 24.81 32.56 24.99C32.42 25.04 32.27 25.07 32.12 25.07ZM32 21.27C31.39 21.36 31.01 21.88 30.9 22.36C30.78 22.88 30.86 23.48 31.13 24.07C31.29 24.4 31.48 24.6 31.71 24.72C31.94 24.84 32.23 24.85 32.47 24.75C32.87 24.59 33.17 24.24 33.39 23.69C33.54 23.31 33.67 22.75 33.47 22.19C33.28 21.67 32.72 21.3 32.07 21.27H32ZM32.03 24.05L32 23.97C32 23.97 31.9 23.86 31.84 23.74C31.65 23.32 31.58 22.86 31.66 22.53C31.72 22.28 31.82 22.17 31.96 22.12V22.07H32.1C32.4 22.11 32.63 22.19 32.72 22.45C32.8 22.68 32.77 23.07 32.65 23.39C32.54 23.66 32.37 23.87 32.25 23.96V24.01L32.03 24.04V24.05ZM32.11 22.34C32.01 22.37 31.95 22.39 31.9 22.59C31.85 22.8 31.86 23.2 32.06 23.63C32.08 23.67 32.1 23.71 32.13 23.74C32.21 23.67 32.34 23.51 32.42 23.3C32.54 23 32.54 22.68 32.49 22.54C32.46 22.45 32.41 22.37 32.11 22.34Z" fill="#3D6D4A"/>
<path fill-rule="evenodd" clip-rule="evenodd" d="M30.07 27.72C29.55 27.8 29.02 28 28.65 28.44C28.28 28.88 28.19 29.59 28.54 30.25L28.56 30.29L28.59 30.33C28.98 30.83 29.66 30.95 30.21 30.78C30.76 30.61 31.26 30.22 31.64 29.68V29.66C31.83 29.37 31.94 29.08 31.93 28.77C31.92 28.46 31.75 28.18 31.53 28.01C31.1 27.67 30.57 27.64 30.05 27.72H30.07ZM30.22 28.75C30.55 28.7 30.85 28.79 30.9 28.83C30.9 28.82 30.92 28.85 30.9 28.83C30.9 28.84 30.88 28.93 30.79 29.09C30.52 29.47 30.17 29.72 29.9 29.8C29.66 29.87 29.56 29.83 29.45 29.71C29.32 29.41 29.32 29.26 29.45 29.12C29.58 28.96 29.9 28.8 30.22 28.76V28.75Z" fill="#3D6D4A"/>
<path d="M29.74 30.98C29.3 30.98 28.82 30.82 28.5 30.41L28.43 30.31C28.08 29.65 28.14 28.87 28.56 28.36C28.89 27.97 29.37 27.71 29.97 27.61L30.06 27.59C30.73 27.49 31.24 27.59 31.63 27.91C31.89 28.11 32.06 28.44 32.08 28.76C32.1 29.07 32 29.38 31.78 29.72C31.36 30.32 30.84 30.72 30.27 30.9C30.11 30.95 29.93 30.98 29.75 30.98H29.74ZM30.17 27.83L30.09 27.85C29.69 27.91 29.13 28.07 28.75 28.53C28.39 28.96 28.35 29.63 28.65 30.2L28.69 30.26C29.07 30.74 29.71 30.81 30.18 30.67C30.7 30.51 31.17 30.14 31.55 29.61C31.75 29.3 31.83 29.04 31.82 28.78C31.81 28.53 31.67 28.27 31.47 28.11C31.15 27.85 30.72 27.76 30.16 27.83H30.17ZM29.72 29.96C29.58 29.96 29.48 29.91 29.37 29.79L29.35 29.76C29.23 29.48 29.18 29.25 29.36 29.04C29.5 28.87 29.8 28.72 30.11 28.65L30.22 28.63C30.52 28.59 30.8 28.64 30.94 28.7H31L31.09 28.87L31.04 28.91C31.02 28.97 30.98 29.06 30.92 29.16C30.65 29.53 30.29 29.82 29.96 29.92C29.87 29.95 29.79 29.96 29.72 29.96ZM29.57 29.64C29.64 29.71 29.69 29.74 29.88 29.68C30.09 29.62 30.42 29.4 30.7 29.02C30.73 28.98 30.75 28.94 30.76 28.91C30.67 28.88 30.5 28.85 30.31 28.87H30.24C29.92 28.93 29.64 29.08 29.54 29.2C29.48 29.28 29.44 29.36 29.56 29.64H29.57Z" fill="#3D6D4A"/>
<path fill-rule="evenodd" clip-rule="evenodd" d="M33.4701 25.74H33.4501C33.1201 25.81 32.8301 25.94 32.6201 26.17C32.4101 26.4 32.3301 26.72 32.3601 26.99C32.4201 27.53 32.7801 27.93 33.2001 28.24C33.6201 28.55 34.1401 28.78 34.7101 28.73C35.2801 28.68 35.8501 28.24 36.0701 27.53V27.49L36.0901 27.44C36.1601 26.81 35.7701 26.25 35.2601 25.98C34.7501 25.71 34.1201 25.64 33.4601 25.75L33.4701 25.74ZM33.6501 26.77C34.1101 26.7 34.5301 26.77 34.7801 26.9C35.0001 27.02 35.0401 27.12 35.0401 27.29C34.9201 27.6 34.8101 27.7 34.6301 27.71C34.4201 27.73 34.0901 27.62 33.8201 27.42C33.5601 27.22 33.4001 26.94 33.3901 26.88C33.3801 26.88 33.3901 26.85 33.3901 26.88C33.3901 26.87 33.4701 26.81 33.6501 26.77Z" fill="#3D6D4A"/>
<path d="M34.56 28.86C34.08 28.86 33.59 28.68 33.13 28.34C32.59 27.94 32.3 27.5 32.25 27C32.21 26.67 32.32 26.32 32.54 26.08C32.74 25.86 33 25.72 33.36 25.63L33.46 25.61C34.16 25.49 34.81 25.58 35.34 25.86C35.85 26.13 36.32 26.72 36.23 27.45L36.21 27.57C35.99 28.28 35.4 28.8 34.74 28.86C34.68 28.86 34.63 28.86 34.57 28.86H34.56ZM33.45 25.87C33.14 25.94 32.89 26.06 32.72 26.26C32.55 26.45 32.46 26.72 32.49 26.98C32.54 27.41 32.8 27.79 33.28 28.14C33.61 28.38 34.11 28.66 34.71 28.61C35.27 28.56 35.77 28.11 35.96 27.5V27.43C36.04 26.82 35.64 26.31 35.21 26.09C34.76 25.85 34.21 25.77 33.6 25.85V25.87H33.45ZM34.58 27.84C34.34 27.84 34 27.72 33.75 27.52C33.54 27.37 33.38 27.15 33.31 27H33.27V26.75L33.37 26.73C33.37 26.73 33.46 26.69 33.53 26.67L33.63 26.64C34.16 26.56 34.6 26.65 34.84 26.78C35.09 26.91 35.17 27.05 35.16 27.28V27.32C35.04 27.61 34.91 27.8 34.63 27.82C34.61 27.82 34.59 27.82 34.57 27.82L34.58 27.84ZM33.55 26.94C33.6 27.03 33.72 27.2 33.89 27.32C34.15 27.51 34.45 27.6 34.61 27.59C34.71 27.59 34.8 27.55 34.91 27.26C34.91 27.16 34.89 27.1 34.72 27.01C34.53 26.91 34.17 26.83 33.73 26.89H33.68C33.63 26.91 33.59 26.93 33.55 26.94Z" fill="#3D6D4A"/>
<path d="M30.4501 8.06004C29.7701 7.91004 29.0901 7.93004 28.4601 8.11004C27.2001 8.47004 26.1601 9.55004 25.8901 11.13C25.5101 13.31 26.4901 15.41 28.1901 16.61C28.7601 17.01 29.3501 16.16 28.7901 15.76C27.4001 14.78 26.6001 13.08 26.9101 11.3C27.1301 10.05 27.8401 9.36004 28.7501 9.10004C29.6601 8.84004 30.8001 9.04004 31.7901 9.80004C31.8801 9.87004 31.9801 9.90004 32.0901 9.91004C33.6101 9.95004 34.7901 10.11 35.4001 10.49C35.7101 10.68 35.8901 10.9 35.9901 11.24C36.1001 11.58 36.1101 12.07 35.9801 12.75V12.77C35.6701 14.67 34.1001 16.17 32.3101 16.55C31.5801 16.66 31.8201 17.76 32.5201 17.56C35.1601 16.7 36.5301 15.23 36.9901 12.96C36.9901 12.96 36.9901 12.96 36.9901 12.95C37.1501 12.16 37.1501 11.49 36.9801 10.92C36.8001 10.35 36.4301 9.90004 35.9501 9.60004C35.0101 9.01004 33.7301 8.91004 32.2001 8.87004C31.6401 8.48004 31.0601 8.18004 30.4501 8.04004V8.06004Z" fill="#3D6D4A"/>
<path d="M32.36 17.71C32.19 17.71 32.04 17.65 31.92 17.52C31.75 17.34 31.69 17.06 31.77 16.83C31.85 16.61 32.03 16.46 32.28 16.43C34.08 16.05 35.55 14.54 35.84 12.76L35.86 12.66C35.96 12.08 35.96 11.63 35.86 11.29C35.76 10.99 35.61 10.79 35.32 10.61C34.78 10.27 33.72 10.09 32.07 10.05C31.93 10.05 31.8 10 31.69 9.92001C30.78 9.23001 29.69 8.97001 28.76 9.24001C27.81 9.51001 27.2 10.24 27.01 11.34C26.72 12.99 27.44 14.69 28.84 15.67C29.18 15.91 29.18 16.3 29 16.57C28.82 16.83 28.45 16.97 28.1 16.73C26.3 15.46 25.38 13.26 25.75 11.13C26.02 9.58001 27.01 8.41001 28.41 8.01001C29.01 7.84001 29.66 7.81001 30.31 7.93001L30.46 7.95001C31.02 8.07001 31.59 8.34001 32.22 8.77001C33.58 8.81001 34.99 8.89001 35.99 9.52001C36.52 9.85001 36.89 10.33 37.07 10.91C37.24 11.44 37.25 12.07 37.12 12.83H37.17L37.09 13C36.61 15.34 35.16 16.84 32.53 17.7C32.46 17.72 32.39 17.73 32.33 17.73L32.36 17.71ZM36.1 12.8C35.79 14.68 34.24 16.27 32.34 16.67C32.13 16.7 32.05 16.82 32.02 16.91C31.97 17.06 32.01 17.24 32.11 17.35C32.18 17.42 32.3 17.49 32.49 17.44C35.02 16.61 36.37 15.25 36.85 13.03L36.87 12.91C37.03 12.12 37.02 11.48 36.86 10.96C36.7 10.44 36.36 10.01 35.88 9.71001C34.92 9.11001 33.54 9.03001 32.2 9.00001H32.16L32.13 8.98001C31.56 8.58001 31.04 8.33001 30.54 8.20001L30.43 8.18001C29.77 8.04001 29.1 8.05001 28.5 8.23001C27.2 8.60001 26.27 9.70001 26.02 11.16C25.67 13.2 26.55 15.3 28.27 16.52C28.49 16.68 28.7 16.58 28.82 16.43C28.93 16.27 28.95 16.04 28.72 15.88C27.25 14.84 26.49 13.04 26.79 11.3C27.05 9.78001 27.98 9.21001 28.72 9.00001C29.72 8.71001 30.9 8.98001 31.87 9.72001C31.94 9.77001 32.02 9.80001 32.1 9.80001C33.79 9.84001 34.89 10.04 35.48 10.4C35.82 10.61 36.01 10.86 36.13 11.22C36.25 11.62 36.25 12.15 36.13 12.8V12.82L36.1 12.8Z" fill="#3D6D4A"/>
<path fill-rule="evenodd" clip-rule="evenodd" d="M34.66 6.02997C34.15 6.08997 33.69 6.23997 33.28 6.48997C32.46 6.98997 31.92 7.85997 31.63 9.00997C31.56 9.28997 31.73 9.56997 32.01 9.63997C32.29 9.70997 32.57 9.53997 32.64 9.25997C32.89 8.27997 33.29 7.69997 33.83 7.36997C34.37 7.03997 35.12 6.92997 36.17 7.09997C36.31 7.12997 36.45 7.09997 36.57 7.01997C36.69 6.93997 36.76 6.81997 36.79 6.67997C36.81 6.53997 36.78 6.39997 36.69 6.28997C36.6 6.17997 36.48 6.09997 36.34 6.08997C35.74 5.98997 35.19 5.96997 34.68 6.02997H34.66Z" fill="#3D6D4A"/>
<path d="M32.13 9.78997C32.08 9.78997 32.03 9.78997 31.97 9.76997C31.63 9.67997 31.42 9.32997 31.5 8.98997C31.81 7.76997 32.39 6.89997 33.21 6.38997C33.63 6.13997 34.11 5.96997 34.64 5.90997C35.15 5.84997 35.72 5.86997 36.34 5.96997C36.51 5.98997 36.67 6.07997 36.77 6.21997C36.87 6.35997 36.92 6.53997 36.89 6.70997C36.86 6.87997 36.76 7.03997 36.62 7.13997C36.48 7.23997 36.3 7.27997 36.12 7.23997C35.15 7.07997 34.41 7.15997 33.87 7.48997C33.33 7.81997 32.97 8.39997 32.74 9.30997C32.67 9.59997 32.4 9.79997 32.12 9.79997L32.13 9.78997ZM35.26 6.11997C35.06 6.11997 34.87 6.12997 34.68 6.14997C34.18 6.20997 33.73 6.35997 33.35 6.59997C32.58 7.06997 32.05 7.88997 31.75 9.04997C31.7 9.25997 31.82 9.46997 32.04 9.52997C32.25 9.57997 32.47 9.44997 32.52 9.23997C32.77 8.25997 33.16 7.63997 33.76 7.26997C34.35 6.90997 35.15 6.80997 36.18 6.97997C36.29 6.99997 36.4 6.97997 36.49 6.91997C36.58 6.85997 36.64 6.75997 36.66 6.65997C36.68 6.54997 36.65 6.43997 36.59 6.35997C36.53 6.27997 36.43 6.21997 36.32 6.20997C35.95 6.14997 35.59 6.11997 35.27 6.11997H35.26Z" fill="#3D6D4A"/>
<path d="M30.4601 9.6C29.2401 9.51 28.0301 10.31 27.7801 11.72C27.5301 13.15 28.1801 14.53 29.3101 15.32C29.4201 15.41 29.5601 15.44 29.7001 15.42C29.8401 15.4 29.9601 15.32 30.0501 15.2C30.1301 15.08 30.1601 14.94 30.1301 14.8C30.1001 14.66 30.0201 14.54 29.9001 14.47C29.0901 13.9 28.6201 12.92 28.8001 11.9C28.9701 10.94 29.6001 10.58 30.3901 10.63C30.6801 10.65 30.9201 10.44 30.9401 10.15C30.9601 9.86 30.7501 9.62 30.4601 9.6Z" fill="#3D6D4A"/>
<path d="M29.62 15.55C29.48 15.55 29.34 15.5 29.23 15.42C28.03 14.58 27.41 13.12 27.65 11.7C27.93 10.12 29.27 9.38997 30.46 9.46997C30.63 9.47997 30.79 9.55997 30.9 9.68997C31.01 9.81997 31.07 9.98997 31.06 10.16C31.03 10.51 30.72 10.79 30.37 10.76C29.81 10.72 29.1 10.89 28.92 11.93C28.76 12.88 29.16 13.81 29.97 14.38C30.11 14.47 30.22 14.62 30.25 14.79C30.29 14.96 30.25 15.14 30.15 15.29C30.05 15.43 29.89 15.53 29.72 15.56C29.69 15.56 29.65 15.56 29.62 15.56V15.55ZM30.28 9.71997C29.25 9.71997 28.14 10.39 27.9 11.75C27.67 13.08 28.25 14.44 29.38 15.22C29.47 15.29 29.57 15.32 29.68 15.3C29.79 15.28 29.88 15.22 29.94 15.14C30 15.05 30.02 14.94 30 14.84C29.98 14.74 29.91 14.64 29.82 14.59C28.93 13.97 28.48 12.93 28.67 11.89C28.83 10.95 29.47 10.46 30.39 10.52H30.42C30.63 10.52 30.8 10.36 30.81 10.16C30.83 9.93997 30.66 9.75997 30.45 9.73997C30.39 9.73997 30.34 9.73997 30.28 9.73997V9.71997Z" fill="#3D6D4A"/>
</g>
<defs>
<clipPath id="clip0_14302_1336">
<rect width="56" height="56" fill="white" transform="translate(0.5)"/>
</clipPath>
</defs>
</svg>
