<svg width="57" height="56" viewBox="0 0 57 56" fill="none" xmlns="http://www.w3.org/2000/svg">
<g clip-path="url(#clip0_14302_729)">
<path d="M46.28 46.77C45.54 46.77 44.8 46.7 44.08 46.57C40.82 45.95 38.09 44 35.99 40.78C35.85 40.52 35.93 40.2 36.17 40.04C36.41 39.88 36.74 39.94 36.92 40.17C38.86 43.13 41.33 44.91 44.28 45.47C46.99 45.97 49.79 45.47 52.16 44.08C52.23 44.03 52.29 43.95 52.33 43.87C53.28 41.23 53.26 38.34 52.27 35.71C51.19 32.92 49.03 30.78 45.83 29.38C45.69 29.33 45.57 29.22 45.51 29.07C45.45 28.92 45.45 28.77 45.51 28.63C45.57 28.49 45.69 28.38 45.83 28.33C45.97 28.28 46.13 28.29 46.27 28.36C49.75 29.88 52.12 32.22 53.3 35.31C54.68 38.9 54.05 42.75 53.34 44.34C53.22 44.6 53.02 44.83 52.78 44.99C50.82 46.17 48.56 46.79 46.27 46.77H46.28Z" fill="#3D6D4A"/>
<path d="M46.39 47.02C46.39 47.02 46.3 47.02 46.26 47.02C45.51 47.02 44.76 46.95 44.03 46.81C40.69 46.17 37.91 44.19 35.78 40.91C35.57 40.53 35.69 40.06 36.04 39.83C36.39 39.6 36.87 39.68 37.12 40.02C39.03 42.93 41.45 44.68 44.33 45.22C46.98 45.71 49.71 45.22 52.04 43.86C52.05 43.85 52.09 43.81 52.11 43.76C53.03 41.2 53.01 38.36 52.04 35.8C50.98 33.06 48.86 30.98 45.74 29.61C45.54 29.54 45.38 29.37 45.29 29.17C45.2 28.96 45.21 28.73 45.29 28.53C45.38 28.33 45.55 28.17 45.76 28.09C45.97 28.01 46.2 28.03 46.4 28.13C49.93 29.67 52.34 32.06 53.55 35.22C54.96 38.88 54.32 42.82 53.58 44.44C53.44 44.75 53.21 45.01 52.93 45.2C50.95 46.39 48.69 47.02 46.4 47.02H46.39ZM46.27 46.52C46.27 46.52 46.35 46.52 46.38 46.52C48.59 46.52 50.75 45.92 52.65 44.78C52.84 44.65 53.01 44.46 53.11 44.23C53.81 42.69 54.41 38.92 53.06 35.4C51.9 32.37 49.58 30.08 46.16 28.59C46.07 28.55 45.98 28.54 45.91 28.57C45.83 28.6 45.76 28.66 45.73 28.74C45.7 28.82 45.69 28.91 45.73 28.98C45.76 29.06 45.83 29.12 45.91 29.15C49.17 30.57 51.38 32.75 52.49 35.62C53.5 38.3 53.52 41.26 52.55 43.95C52.48 44.09 52.4 44.19 52.3 44.27C49.85 45.71 46.99 46.21 44.22 45.7C41.21 45.13 38.67 43.31 36.7 40.29C36.61 40.18 36.43 40.15 36.3 40.23C36.16 40.32 36.12 40.49 36.2 40.64C38.25 43.78 40.91 45.69 44.11 46.3C44.81 46.43 45.53 46.5 46.25 46.5H46.27V46.52Z" fill="#3D6D4A"/>
<path d="M35.6299 41.69H35.5499C35.3999 41.67 35.2699 41.59 35.1799 41.47C35.0499 41.3 32.1099 37.14 37.0699 31.13C42.0399 25.12 46.6199 27.32 46.8099 27.41C47.0799 27.55 47.1999 27.88 47.0599 28.15C45.9099 30.52 44.6099 31.5 43.6599 31.89C45.8399 34.21 44.8699 37.26 44.8199 37.4C44.7699 37.53 44.6799 37.65 44.5599 37.71C42.7999 38.65 40.6699 38.58 38.9699 37.53C38.7799 38.56 38.0799 40 35.9599 41.59C35.8599 41.65 35.7399 41.68 35.6199 41.67L35.6299 41.69ZM37.9299 31.84C34.4799 36.01 35.2699 39.1 35.7999 40.28C37.7599 38.64 37.9699 37.28 37.9599 36.75C37.9599 36.48 38.1099 36.23 38.3599 36.11C38.6199 35.99 38.9099 36.04 39.1299 36.22C39.7699 36.76 40.5599 37.1 41.3899 37.21C42.2199 37.32 43.0699 37.18 43.8299 36.82C44.0499 36 44.0399 35.13 43.7899 34.32C43.5399 33.51 43.0599 32.78 42.4199 32.23C42.1999 32.05 42.1099 31.76 42.1799 31.49C42.2499 31.23 42.4699 31.03 42.7399 30.99C43.2699 30.9 44.5499 30.43 45.7999 28.2C44.5799 27.88 41.4399 27.64 37.9799 31.82H37.9499L37.9299 31.84Z" fill="#3D6D4A"/>
<path d="M35.67 41.94C35.67 41.94 35.64 41.94 35.62 41.94H35.55C35.3 41.91 35.11 41.79 34.98 41.62C34.85 41.44 31.77 37.16 36.88 30.97C41.96 24.82 46.73 27.09 46.92 27.19C47.31 27.39 47.48 27.87 47.28 28.27C46.2 30.5 44.98 31.52 44.06 31.99C45.99 34.32 45.16 37.16 45.05 37.49C44.98 37.69 44.85 37.85 44.67 37.95C42.94 38.87 40.85 38.86 39.13 37.94C38.77 39.27 37.76 40.58 36.11 41.82C35.97 41.91 35.82 41.96 35.66 41.96L35.67 41.94ZM44.46 27.2C42.68 27.2 40.04 27.94 37.26 31.29C32.39 37.18 35.25 41.15 35.37 41.32C35.42 41.38 35.49 41.43 35.57 41.44H35.64C35.71 41.44 35.77 41.43 35.82 41.39C37.49 40.13 38.47 38.82 38.71 37.49L38.78 37.13L39.09 37.32C40.71 38.32 42.75 38.38 44.43 37.49C44.5 37.45 44.55 37.39 44.57 37.32C44.67 37.01 45.49 34.22 43.46 32.06L43.21 31.79L43.55 31.65C44.41 31.3 45.68 30.39 46.82 28.03C46.89 27.88 46.83 27.7 46.68 27.62C46.6 27.58 45.76 27.18 44.44 27.18L44.46 27.2ZM35.7 40.69L35.57 40.39C35.04 39.2 34.19 35.98 37.74 31.69L37.82 31.62C41.38 27.37 44.62 27.66 45.84 27.99L46.15 28.07L45.99 28.35C44.67 30.71 43.28 31.18 42.75 31.27C42.57 31.3 42.43 31.42 42.39 31.58C42.34 31.76 42.4 31.95 42.55 32.06C43.24 32.65 43.74 33.41 44 34.27C44.26 35.13 44.28 36.04 44.05 36.91L44.02 37.02L43.92 37.07C43.12 37.45 42.22 37.59 41.34 37.48C40.46 37.37 39.63 37.01 38.95 36.44C38.81 36.32 38.61 36.29 38.45 36.36C38.3 36.43 38.2 36.59 38.2 36.76C38.21 37.31 38.01 38.77 35.95 40.49L35.7 40.7V40.69ZM38.07 32.07C35.04 35.77 35.44 38.58 35.9 39.87C37.55 38.39 37.71 37.21 37.71 36.76C37.71 36.39 37.91 36.05 38.25 35.89C38.59 35.73 39 35.79 39.29 36.04C39.9 36.55 40.63 36.87 41.42 36.97C42.17 37.06 42.92 36.96 43.61 36.66C43.79 35.92 43.77 35.14 43.54 34.41C43.3 33.64 42.86 32.96 42.25 32.44C41.96 32.21 41.83 31.82 41.93 31.45C42.02 31.09 42.33 30.82 42.7 30.77C43.13 30.7 44.25 30.31 45.41 28.39C44.09 28.14 41.29 28.24 38.17 32L38.09 32.07H38.07Z" fill="#3D6D4A"/>
<path d="M37.52 32.07C37.37 32.07 37.2299 32.01 37.1199 31.9C35.9799 30.87 34.4599 30.37 32.93 30.52C32.62 30.56 32.3399 30.33 32.3099 30.03C32.2699 29.72 32.4999 29.44 32.7999 29.41C34.6699 29.21 36.5299 29.85 37.8899 31.14C38.0499 31.3 38.0899 31.54 38.0099 31.75C37.9199 31.96 37.72 32.09 37.49 32.09H37.5099L37.52 32.07Z" fill="#3D6D4A"/>
<path d="M37.51 32.32H35.59L36.86 31.98C35.8 31.07 34.38 30.62 32.97 30.76C32.76 30.78 32.55 30.72 32.38 30.59C32.21 30.46 32.1 30.26 32.08 30.05C32.03 29.6 32.35 29.2 32.79 29.15C34.73 28.94 36.66 29.6 38.08 30.94C38.32 31.18 38.38 31.52 38.25 31.83H39.38L37.87 32.24C37.76 32.3 37.63 32.33 37.5 32.33L37.51 32.32ZM33.48 30.23C34.89 30.23 36.25 30.75 37.3 31.7C37.37 31.77 37.45 31.81 37.53 31.81H37.57C37.67 31.79 37.76 31.72 37.8 31.63C37.85 31.52 37.82 31.38 37.74 31.29C36.44 30.05 34.65 29.44 32.85 29.64C32.68 29.66 32.56 29.81 32.58 29.99C32.6 30.16 32.76 30.27 32.93 30.26C33.12 30.24 33.3 30.23 33.49 30.23H33.48Z" fill="#3D6D4A"/>
<path d="M52.89 44.35C52.62 44.35 52.38 44.16 52.33 43.9C51.79 41.74 50.61 39.79 48.94 38.31C48.82 38.21 48.75 38.08 48.74 37.92C48.73 37.77 48.78 37.62 48.87 37.51C48.97 37.4 49.11 37.33 49.26 37.32C49.41 37.32 49.56 37.36 49.67 37.47C51.54 39.1 52.85 41.27 53.43 43.68C53.49 43.98 53.29 44.27 52.99 44.33L52.89 44.35Z" fill="#3D6D4A"/>
<path d="M52.8801 44.6C52.4901 44.6 52.1601 44.33 52.0901 43.94C51.5601 41.83 50.4201 39.94 48.7801 38.49C48.6201 38.36 48.5101 38.16 48.4901 37.94C48.4701 37.72 48.5401 37.5 48.6801 37.34C48.8201 37.17 49.0301 37.07 49.2501 37.06C49.4701 37.04 49.6801 37.13 49.8401 37.27C51.7501 38.94 53.0801 41.13 53.6701 43.61C53.7101 43.83 53.6701 44.05 53.5501 44.23C53.4301 44.41 53.2501 44.53 53.0301 44.57L52.8901 44.59H52.8701L52.8801 44.6ZM49.2901 37.57H49.2701C49.1901 37.57 49.1101 37.61 49.0501 37.68C49.0001 37.74 48.9701 37.83 48.9801 37.91C48.9801 37.99 49.0301 38.07 49.0901 38.12C50.8101 39.64 52.0101 41.62 52.5701 43.84C52.6001 44 52.7201 44.1 52.8601 44.1H52.9301C53.0101 44.07 53.0801 44.02 53.1301 43.96C53.1801 43.89 53.1901 43.81 53.1801 43.73C52.6201 41.37 51.3501 39.26 49.5101 37.66C49.4501 37.6 49.3701 37.57 49.3001 37.57H49.2901Z" fill="#3D6D4A"/>
<path d="M52.14 44.7C50.28 44.64 48.46 44.19 46.78 43.4C46.63 43.35 46.51 43.24 46.45 43.09C46.39 42.95 46.39 42.78 46.45 42.64C46.51 42.5 46.63 42.39 46.78 42.34C46.93 42.29 47.09 42.31 47.23 42.38C48.83 43.16 50.59 43.57 52.38 43.58C52.69 43.55 52.96 43.78 52.98 44.09C53.01 44.4 52.78 44.67 52.47 44.69C52.47 44.69 52.34 44.7 52.14 44.7Z" fill="#3D6D4A"/>
<path d="M52.14 44.95C50.24 44.89 48.4 44.44 46.68 43.62C46.49 43.56 46.32 43.4 46.23 43.19C46.14 42.98 46.14 42.75 46.23 42.54C46.32 42.33 46.5 42.17 46.71 42.1C46.92 42.03 47.16 42.05 47.36 42.16C48.91 42.91 50.65 43.32 52.39 43.33C52.82 43.28 53.2 43.62 53.24 44.07C53.26 44.28 53.19 44.49 53.05 44.66C52.91 44.83 52.72 44.93 52.5 44.94C52.5 44.94 52.36 44.95 52.15 44.95H52.14ZM46.95 42.56C46.95 42.56 46.89 42.56 46.85 42.58C46.77 42.61 46.7 42.67 46.67 42.75C46.64 42.83 46.63 42.92 46.67 43C46.7 43.08 46.77 43.14 46.85 43.17C48.53 43.97 50.31 44.4 52.14 44.46C52.32 44.46 52.44 44.46 52.45 44.46C52.53 44.46 52.61 44.41 52.66 44.35C52.71 44.29 52.74 44.21 52.73 44.13C52.72 43.96 52.58 43.84 52.4 43.85C50.57 43.85 48.75 43.42 47.12 42.63C47.07 42.6 47.01 42.59 46.96 42.59L46.95 42.56Z" fill="#3D6D4A"/>
<path d="M10.8 50.22C10.64 50.22 10.49 50.16 10.39 50.04C10.28 49.93 10.23 49.77 10.24 49.62C10.27 49.21 11.12 39.42 18.28 34.68C22.38 31.96 27.78 31.75 29.64 34.22C30.65 35.57 31.32 38.72 24.31 44.55C20.4 47.56 15.78 49.51 10.9 50.23H10.8V50.22ZM25.23 33.62C22.98 33.67 20.8 34.36 18.93 35.61C13.26 39.34 11.78 46.69 11.45 48.99C15.86 48.21 20.03 46.39 23.6 43.68C28.12 39.91 30.04 36.62 28.75 34.87C28.15 34.06 26.83 33.61 25.24 33.61L25.23 33.62Z" fill="#3D6D4A"/>
<path d="M10.81 50.47C10.58 50.47 10.37 50.38 10.21 50.21C10.06 50.05 9.97998 49.82 9.99998 49.6C10.03 49.18 10.92 39.25 18.15 34.47C22.34 31.69 27.92 31.5 29.84 34.06C30.9 35.49 31.62 38.78 24.47 44.73C20.53 47.76 15.85 49.74 10.93 50.46H10.8L10.81 50.47ZM25.23 32.74C23.09 32.74 20.58 33.47 18.43 34.89C11.4 39.54 10.53 49.24 10.5 49.65C10.5 49.73 10.52 49.82 10.58 49.88C10.64 49.94 10.72 49.98 10.8 49.98H10.89C15.7 49.27 20.29 47.32 24.16 44.35C30.98 38.67 30.4 35.66 29.44 34.37C28.62 33.28 27.06 32.74 25.23 32.74ZM11.16 49.31L11.21 48.97C11.53 46.75 13.03 39.21 18.8 35.41C20.71 34.13 22.93 33.43 25.23 33.38C26.95 33.38 28.31 33.88 28.95 34.74C30.36 36.63 28.46 39.96 23.76 43.89C20.17 46.62 15.93 48.47 11.49 49.25L11.15 49.31H11.16ZM25.24 33.88C23.04 33.93 20.91 34.6 19.08 35.83C13.75 39.33 12.17 46.18 11.76 48.7C15.99 47.9 20.03 46.1 23.46 43.5C27.79 39.89 29.75 36.64 28.56 35.04C28.03 34.32 26.79 33.88 25.25 33.88H25.24Z" fill="#3D6D4A"/>
<path d="M15.58 51.75C13.72 51.81 11.89 51.22 10.42 50.07C10.21 49.86 10.21 49.52 10.4 49.3C10.6 49.08 10.93 49.05 11.16 49.24C11.34 49.4 15.84 53.23 24.01 47.36C32.18 41.49 29.04 35.43 29.04 35.37C28.97 35.24 28.95 35.09 28.99 34.94C29.03 34.8 29.13 34.67 29.26 34.6C29.53 34.45 29.88 34.54 30.03 34.81C30.07 34.88 33.65 41.79 24.7 48.22C20.94 50.95 17.89 51.75 15.57 51.75H15.58Z" fill="#3D6D4A"/>
<path d="M15.32 52C13.5 52 11.72 51.39 10.27 50.27C9.94997 49.94 9.93997 49.45 10.22 49.14C10.51 48.82 10.99 48.78 11.33 49.05C11.52 49.22 15.89 52.9 23.88 47.16C31.13 41.95 29.29 36.55 28.84 35.52L28.82 35.47C28.72 35.29 28.7 35.08 28.76 34.87C28.82 34.66 28.96 34.48 29.14 34.38C29.53 34.16 30.03 34.3 30.25 34.69C30.29 34.77 33.98 41.86 24.85 48.43C21.59 50.8 18.47 52 15.58 52C15.49 52 15.4 52 15.32 52ZM10.83 49.37C10.75 49.37 10.66 49.41 10.6 49.47C10.49 49.59 10.49 49.78 10.6 49.89C12 50.97 13.77 51.54 15.57 51.49H15.58C18.36 51.49 21.38 50.32 24.56 48.01C33.29 41.73 29.85 34.99 29.82 34.92C29.74 34.78 29.55 34.72 29.39 34.81C29.32 34.85 29.27 34.92 29.24 35C29.22 35.08 29.23 35.17 29.27 35.24L29.3 35.31C29.81 36.51 31.66 42.17 24.17 47.55C15.86 53.53 11.2 49.59 11.01 49.42C10.96 49.38 10.89 49.36 10.83 49.36V49.37Z" fill="#3D6D4A"/>
<path d="M23.73 38.98C23.57 38.98 23.42 38.92 23.32 38.8C23.22 38.69 23.16 38.55 23.17 38.4C23.18 38.25 23.24 38.11 23.35 38.01C24.23 37.18 25.31 36.6 26.49 36.33C26.8 36.28 27.09 36.48 27.15 36.79C27.2 37.1 27 37.39 26.69 37.45C25.73 37.68 24.84 38.16 24.11 38.84C24.01 38.93 23.87 38.99 23.73 38.99V38.98Z" fill="#3D6D4A"/>
<path d="M23.7401 39.23C23.5201 39.23 23.3001 39.14 23.1501 38.97C23.0001 38.81 22.9301 38.6 22.9301 38.39C22.9301 38.18 23.0401 37.97 23.1901 37.83C24.1001 36.97 25.2201 36.37 26.4401 36.09C26.6701 36.05 26.8801 36.09 27.0601 36.22C27.2401 36.34 27.3601 36.53 27.4001 36.75C27.4401 36.97 27.3901 37.18 27.2601 37.36C27.1301 37.54 26.9501 37.66 26.7301 37.69C25.8201 37.91 24.9701 38.37 24.2801 39.01C24.1301 39.15 23.9301 39.22 23.7301 39.22L23.7401 39.23ZM23.7401 38.73C23.8101 38.75 23.8901 38.7 23.9501 38.65C24.7001 37.95 25.6301 37.45 26.6401 37.21C26.7401 37.19 26.8101 37.15 26.8601 37.08C26.9101 37.01 26.9301 36.93 26.9101 36.84C26.9001 36.76 26.8501 36.68 26.7801 36.63C26.7101 36.58 26.6301 36.56 26.5401 36.58C25.4201 36.84 24.3701 37.39 23.5301 38.19C23.4701 38.25 23.4301 38.33 23.4301 38.41C23.4301 38.49 23.4601 38.57 23.5101 38.63C23.5701 38.69 23.6501 38.73 23.7401 38.73Z" fill="#3D6D4A"/>
<path d="M19.1201 44.25C18.9801 44.25 18.8501 44.2 18.7501 44.11C18.6401 44.01 18.5701 43.87 18.5601 43.72C18.5601 43.57 18.6001 43.42 18.7001 43.31C19.3701 42.62 20.2001 42.1 21.1201 41.8C21.4101 41.71 21.7301 41.87 21.8201 42.17C21.9101 42.46 21.7501 42.78 21.4501 42.87C20.7201 43.11 20.0701 43.52 19.5301 44.07C19.4201 44.19 19.2701 44.26 19.1101 44.25H19.1201Z" fill="#3D6D4A"/>
<path d="M19.13 44.5C18.93 44.5 18.74 44.43 18.6 44.3C18.44 44.16 18.34 43.95 18.33 43.74C18.32 43.52 18.39 43.31 18.54 43.15C19.24 42.42 20.11 41.88 21.07 41.57C21.5 41.44 21.95 41.68 22.09 42.1C22.15 42.31 22.13 42.52 22.03 42.72C21.93 42.91 21.76 43.05 21.55 43.12C20.87 43.34 20.24 43.74 19.74 44.25C19.59 44.41 19.38 44.51 19.15 44.51L19.13 44.5ZM21.29 42.03C21.29 42.03 21.23 42.03 21.2 42.04C20.33 42.32 19.53 42.83 18.89 43.49C18.84 43.54 18.81 43.63 18.82 43.71C18.82 43.79 18.86 43.87 18.92 43.92C18.98 43.97 19.05 44 19.12 44C19.2 44.01 19.29 43.96 19.35 43.9C19.92 43.32 20.62 42.88 21.37 42.63C21.45 42.6 21.52 42.55 21.56 42.48C21.6 42.41 21.61 42.32 21.58 42.25C21.54 42.12 21.42 42.03 21.28 42.03H21.29Z" fill="#3D6D4A"/>
<path d="M18.75 39.29C18.52 39.29 18.31 39.16 18.22 38.95C18.13 38.74 18.18 38.49 18.34 38.33C19.12 37.5 20.1 36.88 21.18 36.53C21.48 36.45 21.78 36.62 21.87 36.92C21.91 37.06 21.89 37.22 21.82 37.35C21.75 37.48 21.63 37.58 21.48 37.62C20.6 37.91 19.8 38.42 19.17 39.1C19.07 39.22 18.92 39.3 18.76 39.3L18.75 39.29Z" fill="#3D6D4A"/>
<path d="M18.73 39.54C18.41 39.54 18.12 39.35 17.99 39.05C17.86 38.74 17.93 38.39 18.16 38.15C18.96 37.3 19.98 36.65 21.1 36.29C21.54 36.16 21.98 36.42 22.11 36.84C22.17 37.04 22.14 37.27 22.04 37.46C21.94 37.65 21.76 37.79 21.55 37.85C20.72 38.12 19.96 38.61 19.35 39.26C19.21 39.43 18.99 39.53 18.76 39.54H18.73ZM21.33 36.76C21.33 36.76 21.28 36.76 21.25 36.77C20.22 37.1 19.28 37.7 18.53 38.5C18.43 38.6 18.41 38.73 18.46 38.85C18.51 38.97 18.63 39.05 18.75 39.03C18.84 39.03 18.92 38.99 18.98 38.92C19.65 38.21 20.49 37.67 21.41 37.37C21.5 37.34 21.57 37.29 21.61 37.22C21.65 37.15 21.66 37.06 21.64 36.98C21.6 36.84 21.48 36.75 21.34 36.75L21.33 36.76Z" fill="#3D6D4A"/>
<path d="M15.2599 45.08C15.1399 45.08 15.0299 45.04 14.9299 44.97C14.8099 44.88 14.7299 44.75 14.7099 44.6C14.6899 44.45 14.7299 44.3 14.8099 44.18C15.1999 43.68 15.6899 43.26 16.2499 42.97C16.5299 42.83 16.8599 42.94 16.9999 43.22C17.1399 43.5 17.0299 43.83 16.7499 43.97C16.3499 44.19 15.9999 44.49 15.7199 44.85C15.6099 45 15.4299 45.08 15.2499 45.07L15.2599 45.08Z" fill="#3D6D4A"/>
<path d="M15.28 45.33C15.1 45.33 14.93 45.28 14.78 45.18C14.6 45.05 14.49 44.86 14.46 44.65C14.43 44.44 14.48 44.22 14.61 44.05C15.03 43.51 15.54 43.08 16.14 42.77C16.34 42.67 16.56 42.65 16.76 42.72C16.97 42.79 17.13 42.93 17.23 43.13C17.43 43.53 17.27 44.02 16.87 44.22C16.51 44.42 16.19 44.69 15.93 45.03C15.78 45.23 15.54 45.35 15.29 45.35L15.28 45.33ZM16.5 43.17C16.5 43.17 16.4 43.18 16.36 43.2C15.83 43.48 15.37 43.87 15 44.34C14.95 44.4 14.93 44.48 14.95 44.57C14.97 44.66 15.01 44.72 15.07 44.77C15.12 44.81 15.18 44.83 15.25 44.83H15.26C15.36 44.83 15.46 44.79 15.52 44.71C15.82 44.32 16.2 44 16.63 43.76C16.79 43.68 16.85 43.49 16.78 43.34C16.74 43.27 16.68 43.21 16.6 43.18C16.57 43.18 16.54 43.16 16.5 43.16V43.17Z" fill="#3D6D4A"/>
<path d="M14.52 30.98C10.16 30.98 8.09997 28.59 6.47997 26.72C5.41997 25.49 4.55997 24.52 3.39997 24.43C3.16997 24.41 2.97997 24.26 2.90997 24.04C2.83997 23.82 2.90997 23.59 3.07997 23.44C3.71997 22.88 3.91997 21.47 4.14997 19.81C4.74997 15.48 5.63997 8.96002 16.23 8.96002H16.73C19.02 9.00002 20.84 9.71002 22.13 11.07C23.38 12.5 24.09 14.32 24.12 16.22C24.73 17.06 27.37 20.97 26.24 24.7C25.55 27.05 23.51 28.83 20.2 29.91C18.37 30.57 16.46 30.92 14.52 30.97V30.98ZM4.40997 23.51C5.54997 23.93 6.41997 24.92 7.33997 25.99C9.57997 28.55 12.07 31.47 19.84 28.86C22.8 27.88 24.6 26.37 25.2 24.39C26.27 20.84 23.18 16.8 23.15 16.76C23.07 16.66 23.03 16.53 23.03 16.4C23.03 16.37 23.07 13.68 21.32 11.84C20.24 10.72 18.69 10.12 16.72 10.09C6.62997 9.89002 5.85997 15.48 5.24997 19.97C5.05997 21.37 4.88997 22.63 4.40997 23.51Z" fill="#3D6D4A"/>
<path d="M14.52 31.23C10.04 31.23 7.86997 28.72 6.28997 26.88C5.30997 25.74 4.45997 24.76 3.37997 24.67C3.04997 24.64 2.76997 24.43 2.66997 24.11C2.56997 23.8 2.66997 23.46 2.91997 23.24C3.48997 22.74 3.67997 21.36 3.89997 19.77C4.50997 15.36 5.42997 8.71002 16.22 8.71002H16.72C19.08 8.76002 20.96 9.49002 22.3 10.9C23.58 12.36 24.31 14.22 24.36 16.14C25.02 17.05 27.61 21 26.47 24.77C25.75 27.23 23.67 29.04 20.27 30.15C18.42 30.81 16.48 31.17 14.51 31.22L14.52 31.23ZM16.72 9.22002H16.23C5.86997 9.22002 4.98997 15.61 4.39997 19.84C4.16997 21.54 3.95997 23.01 3.24997 23.63C3.14997 23.71 3.10997 23.84 3.14997 23.96C3.18997 24.08 3.28997 24.16 3.41997 24.17C4.69997 24.27 5.60997 25.32 6.66997 26.55C8.27997 28.41 10.27 30.73 14.52 30.73C16.44 30.69 18.32 30.33 20.12 29.69C23.35 28.63 25.33 26.93 26 24.64C27.1 20.99 24.46 17.12 23.92 16.38L23.87 16.32V16.24C23.84 14.4 23.15 12.63 21.94 11.25C20.7 9.95002 18.94 9.27002 16.72 9.22002ZM14.49 30.14C10.64 30.14 8.83997 28.08 7.19997 26.19C6.26997 25.13 5.41997 24.15 4.33997 23.75L4.06997 23.65L4.20997 23.4C4.66997 22.55 4.83997 21.28 5.01997 19.94C5.63997 15.43 6.39997 9.84002 16.23 9.84002C16.4 9.84002 16.57 9.84002 16.75 9.84002C18.79 9.88002 20.4 10.5 21.53 11.67C23.28 13.51 23.31 16.11 23.31 16.4C23.31 16.48 23.33 16.55 23.37 16.61C23.7 17.05 26.53 20.94 25.46 24.46C24.84 26.53 22.98 28.08 19.94 29.1C17.75 29.83 15.97 30.14 14.49 30.14ZM4.75997 23.39C5.82997 23.88 6.65997 24.83 7.53997 25.83C9.73997 28.35 12.19 31.17 19.77 28.63C22.65 27.67 24.39 26.22 24.97 24.32C25.96 21.05 23.27 17.33 22.96 16.92C22.84 16.77 22.78 16.59 22.79 16.4C22.79 16.29 22.79 13.74 21.15 12.02C20.11 10.94 18.62 10.38 16.72 10.34C6.84997 10.17 6.09997 15.61 5.49997 20C5.32997 21.27 5.15997 22.47 4.75997 23.38V23.39Z" fill="#3D6D4A"/>
<path d="M3.44001 24.43C3.22001 24.43 3.02001 24.3 2.93001 24.1C2.84001 23.9 2.87001 23.67 3.01001 23.5C6.47001 19.45 12.43 17.19 19.78 17.15C19.93 17.15 20.07 17.21 20.18 17.31C20.28 17.42 20.34 17.56 20.34 17.71C20.34 17.86 20.28 18 20.18 18.11C20.07 18.21 19.93 18.27 19.78 18.27C12.77 18.31 7.11001 20.46 3.86001 24.23C3.75001 24.35 3.60001 24.43 3.44001 24.43Z" fill="#3D6D4A"/>
<path d="M3.44002 24.68C3.13002 24.68 2.84002 24.5 2.71002 24.21C2.58002 23.93 2.63002 23.59 2.83002 23.35C6.34002 19.24 12.36 16.95 19.78 16.91C20 16.91 20.2 16.99 20.35 17.15C20.5 17.3 20.59 17.51 20.59 17.72C20.59 17.93 20.51 18.14 20.35 18.29C20.2 18.44 19.99 18.53 19.78 18.53C12.85 18.57 7.27002 20.66 4.05002 24.41C3.90002 24.59 3.67002 24.69 3.44002 24.69V24.68ZM19.78 17.4C12.5 17.44 6.62002 19.67 3.20002 23.67C3.12002 23.76 3.10002 23.89 3.15002 24C3.24002 24.19 3.53002 24.23 3.67002 24.07C6.98002 20.21 12.7 18.07 19.77 18.02C19.85 18.02 19.93 17.99 19.99 17.93C20.05 17.87 20.08 17.79 20.08 17.71C20.08 17.63 20.05 17.55 19.99 17.49C19.93 17.43 19.86 17.4 19.77 17.4H19.78Z" fill="#3D6D4A"/>
<path d="M13.39 27.46C12.32 27.43 11.33 26.91 10.7 26.05C10.52 25.8 10.59 25.45 10.84 25.27C11.09 25.09 11.44 25.16 11.62 25.41C11.89 25.8 12.28 26.09 12.73 26.23C13.18 26.38 13.66 26.38 14.11 26.23C14.71 26.03 15.35 25.99 15.97 26.13C16.59 26.29 17.25 26.17 17.78 25.81C18.33 25.34 19.01 25.04 19.72 24.93C20.66 24.83 21.25 24.44 21.45 23.77C21.54 23.47 21.85 23.31 22.15 23.4C22.45 23.49 22.61 23.8 22.52 24.1C22.18 25.22 21.23 25.91 19.84 26.05C19.33 26.13 18.85 26.34 18.45 26.67C17.67 27.23 16.68 27.43 15.74 27.2C15.33 27.1 14.89 27.12 14.49 27.25C14.14 27.39 13.76 27.47 13.38 27.47L13.39 27.46Z" fill="#3D6D4A"/>
<path d="M13.39 27.71C12.25 27.68 11.17 27.11 10.51 26.19C10.25 25.82 10.34 25.32 10.71 25.06C11.08 24.81 11.58 24.9 11.84 25.26C12.08 25.6 12.42 25.86 12.82 25.99C13.21 26.12 13.65 26.12 14.04 25.99C14.68 25.77 15.37 25.73 16.03 25.88C16.59 26.02 17.18 25.92 17.65 25.6C18.22 25.11 18.94 24.79 19.7 24.68C20.56 24.59 21.05 24.27 21.22 23.69C21.35 23.26 21.8 23.02 22.23 23.15C22.66 23.28 22.9 23.73 22.77 24.16C22.41 25.37 21.38 26.13 19.88 26.29C19.43 26.36 18.99 26.55 18.63 26.85C17.78 27.47 16.71 27.67 15.71 27.43C15.34 27.34 14.96 27.36 14.6 27.47C14.23 27.62 13.83 27.7 13.41 27.71H13.39ZM11.16 25.42C11.1 25.42 11.04 25.44 10.98 25.47C10.84 25.57 10.81 25.76 10.9 25.9C11.47 26.69 12.4 27.18 13.38 27.21C13.73 27.21 14.07 27.13 14.4 27C14.86 26.85 15.34 26.83 15.8 26.94C16.67 27.15 17.58 26.98 18.3 26.45C18.72 26.1 19.24 25.87 19.8 25.79C21.1 25.65 21.97 25.02 22.28 24.01C22.33 23.85 22.24 23.67 22.07 23.62C21.91 23.57 21.73 23.66 21.68 23.83C21.52 24.36 21.05 25.03 19.74 25.17C19.08 25.27 18.45 25.55 17.93 25.99C17.32 26.41 16.59 26.54 15.9 26.36C15.33 26.23 14.74 26.27 14.18 26.45C13.68 26.62 13.14 26.62 12.64 26.45C12.14 26.28 11.71 25.97 11.41 25.53C11.35 25.44 11.25 25.4 11.16 25.4V25.42Z" fill="#3D6D4A"/>
<path d="M12.31 22.17C12.04 22.17 11.81 21.98 11.76 21.71C11.71 21.45 11.86 21.19 12.1 21.09C13.98 20.46 15.94 20.11 17.92 20.06C18.07 20.06 18.21 20.12 18.32 20.22C18.42 20.33 18.48 20.47 18.48 20.62C18.48 20.77 18.42 20.91 18.32 21.02C18.22 21.12 18.07 21.18 17.92 21.18C16.08 21.23 14.25 21.55 12.5 22.13C12.44 22.16 12.37 22.17 12.3 22.17H12.31Z" fill="#3D6D4A"/>
<path d="M12.31 22.42C11.92 22.42 11.59 22.14 11.52 21.76C11.45 21.38 11.66 21 12.02 20.86C13.93 20.22 15.92 19.86 17.92 19.81C18.14 19.81 18.35 19.9 18.5 20.05C18.65 20.2 18.74 20.41 18.74 20.62C18.74 20.83 18.65 21.04 18.5 21.19C18.35 21.34 18.14 21.43 17.93 21.43C16.12 21.48 14.32 21.79 12.59 22.37C12.52 22.4 12.43 22.42 12.33 22.43L12.31 22.42ZM17.92 20.31C15.97 20.36 14.04 20.71 12.18 21.33C12.05 21.38 11.97 21.52 12 21.67C12.03 21.81 12.15 21.92 12.29 21.92C12.33 21.92 12.36 21.91 12.39 21.9C14.19 21.3 16.04 20.98 17.9 20.93C17.99 20.93 18.07 20.9 18.13 20.84C18.19 20.78 18.22 20.7 18.22 20.62C18.22 20.54 18.19 20.46 18.13 20.4C18.07 20.34 17.99 20.31 17.91 20.31H17.92Z" fill="#3D6D4A"/>
<path d="M8.77003 17.34C8.77003 17.34 8.68003 17.34 8.64003 17.34C8.50003 17.31 8.37003 17.22 8.29003 17.09C8.21003 16.96 8.19003 16.81 8.22003 16.67C8.49003 15.55 9.40003 14.79 10.77 14.55C11.27 14.45 11.74 14.2 12.11 13.85C12.85 13.24 13.83 12.98 14.78 13.15C15.2 13.22 15.63 13.18 16.03 13.02C16.69 12.74 17.43 12.69 18.13 12.86C18.83 13.04 19.45 13.44 19.89 14.01C20.05 14.25 20 14.58 19.77 14.76C19.54 14.94 19.22 14.92 19.02 14.71C18.73 14.34 18.32 14.08 17.86 13.96C17.4 13.84 16.92 13.87 16.48 14.05C15.9 14.29 15.26 14.37 14.63 14.27C14 14.15 13.34 14.31 12.84 14.7C12.31 15.19 11.66 15.52 10.96 15.66C10.03 15.82 9.47003 16.25 9.28003 16.93C9.22003 17.17 9.01003 17.33 8.76003 17.34H8.77003Z" fill="#3D6D4A"/>
<path d="M8.70001 17.59C8.70001 17.59 8.63001 17.59 8.60001 17.59C8.37001 17.54 8.19001 17.41 8.07001 17.23C7.96001 17.05 7.92001 16.83 7.97001 16.62C8.26001 15.41 9.26001 14.57 10.72 14.31C11.17 14.22 11.59 14 11.93 13.68C12.74 13.01 13.79 12.73 14.82 12.92C15.19 12.98 15.58 12.95 15.93 12.81C16.64 12.51 17.44 12.45 18.18 12.64C18.93 12.83 19.6 13.27 20.08 13.88C20.33 14.25 20.25 14.71 19.92 14.98C19.59 15.24 19.12 15.21 18.83 14.9C18.56 14.56 18.19 14.33 17.79 14.22C17.39 14.11 16.96 14.14 16.57 14.3C15.94 14.56 15.26 14.64 14.59 14.53C14.02 14.42 13.44 14.56 12.99 14.91C12.45 15.42 11.75 15.77 11 15.92C10.16 16.06 9.68001 16.42 9.52001 17.01C9.43001 17.35 9.13001 17.59 8.78001 17.61C8.75001 17.61 8.72001 17.61 8.69001 17.61L8.70001 17.59ZM14.2 13.35C13.5 13.35 12.82 13.59 12.27 14.04C11.87 14.42 11.37 14.68 10.82 14.79C9.54001 15.01 8.70001 15.7 8.46001 16.72C8.44001 16.8 8.46001 16.88 8.50001 16.95C8.54001 17.02 8.61001 17.07 8.69001 17.09H8.75001C8.89001 17.08 9.00001 16.99 9.04001 16.86C9.25001 16.07 9.88001 15.58 10.92 15.41C11.57 15.28 12.18 14.97 12.67 14.51C13.25 14.06 13.98 13.88 14.68 14.02C15.25 14.11 15.84 14.04 16.39 13.81C16.88 13.62 17.42 13.58 17.92 13.71C18.42 13.84 18.88 14.14 19.21 14.55C19.31 14.65 19.49 14.66 19.61 14.57C19.74 14.47 19.76 14.29 19.67 14.16C19.27 13.66 18.69 13.28 18.05 13.11C17.41 12.94 16.72 13 16.11 13.25C15.67 13.43 15.19 13.48 14.72 13.39C14.54 13.36 14.36 13.34 14.18 13.34L14.2 13.35Z" fill="#3D6D4A"/>
<path d="M41.1299 24.19C40.3399 24.19 39.5499 24.06 38.8099 23.8C34.7999 22.48 33.5699 22.01 31.9499 20.9C29.7399 19.43 28.2999 17.06 28.0199 14.42C27.7899 11.99 28.4999 8.70999 33.1699 6.83999C39.8699 4.14999 44.0799 4.24999 44.2599 4.24999C44.4699 4.24999 44.6499 4.37999 44.7499 4.55999C44.8799 4.82999 48.0499 11.32 48.3699 15.54C48.5399 18.33 47.3599 21.03 45.1999 22.8C44.0399 23.71 42.6099 24.2 41.1399 24.19H41.1299ZM43.8899 5.35999C42.7699 5.39999 38.9899 5.68999 33.5599 7.86999C30.3199 9.16999 28.8299 11.34 29.1399 14.3C29.3999 16.61 30.6699 18.69 32.5999 19.97C34.1099 21.01 35.2799 21.47 39.1499 22.74C40.9599 23.42 42.9799 23.09 44.4899 21.89C46.3499 20.35 47.3699 18.02 47.2399 15.61C46.9699 12.11 44.5199 6.71999 43.8799 5.35999H43.8899Z" fill="#3D6D4A"/>
<path d="M41.13 24.44C40.31 24.44 39.5 24.3 38.73 24.04C34.69 22.71 33.45 22.23 31.81 21.11C29.53 19.6 28.06 17.17 27.77 14.45C27.53 11.94 28.25 8.55 33.07 6.61C39.18 4.15 43.26 4 44.17 4H44.24C44.57 4 44.83 4.18 44.97 4.45C45.1 4.72 48.29 11.22 48.62 15.51C48.8 18.38 47.58 21.17 45.36 22.99C44.17 23.93 42.69 24.44 41.19 24.44H41.15H41.13ZM41.13 23.94H41.17C42.57 23.94 43.94 23.47 45.04 22.6C47.13 20.89 48.29 18.25 48.12 15.55C47.8 11.35 44.56 4.74 44.52 4.67C44.47 4.57 44.37 4.5 44.25 4.5C43.48 4.48 39.44 4.59 33.26 7.07C28.72 8.89 28.04 12.06 28.27 14.4C28.54 16.97 29.93 19.27 32.09 20.7C33.68 21.78 34.89 22.26 38.89 23.57C39.62 23.81 40.37 23.94 41.14 23.94H41.13ZM41.06 23.34C40.39 23.34 39.71 23.22 39.06 22.98C35.18 21.7 34 21.24 32.46 20.18C30.46 18.86 29.15 16.73 28.89 14.34C28.56 11.25 30.1 9 33.47 7.65C38.8 5.51 42.53 5.17 43.88 5.12H44.05L44.12 5.26C44.85 6.8 47.24 12.1 47.51 15.6C47.63 18.08 46.57 20.5 44.67 22.09C43.64 22.91 42.36 23.34 41.08 23.34H41.06ZM43.73 5.62C42.5 5.68 38.8 6.04 33.65 8.1C30.52 9.36 29.09 11.44 29.39 14.27C29.64 16.51 30.86 18.51 32.74 19.75C34.24 20.78 35.4 21.23 39.23 22.49C40.95 23.13 42.91 22.82 44.34 21.68C46.12 20.2 47.12 17.93 47 15.61C46.75 12.31 44.52 7.29 43.73 5.6V5.62Z" fill="#3D6D4A"/>
<path d="M35.85 22.77C35.77 22.77 35.69 22.75 35.62 22.72C35.16 22.49 34.78 22.13 34.52 21.69C34.26 21.25 34.14 20.74 34.17 20.22C34.11 17.46 36.58 13.47 39.17 12.17C39.44 12.03 39.78 12.14 39.92 12.42C39.99 12.55 40.01 12.71 39.96 12.86C39.91 13.01 39.81 13.13 39.67 13.19C37.49 14.31 35.24 17.91 35.29 20.22C35.26 20.52 35.31 20.83 35.46 21.1C35.6 21.37 35.83 21.59 36.1 21.73C36.32 21.85 36.44 22.1 36.38 22.35C36.32 22.6 36.11 22.77 35.86 22.78L35.85 22.77Z" fill="#3D6D4A"/>
<path d="M35.85 23.02C35.73 23.02 35.62 22.99 35.52 22.95C35.01 22.69 34.59 22.3 34.31 21.82C34.03 21.33 33.9 20.78 33.93 20.21C33.87 17.39 36.41 13.29 39.06 11.95C39.45 11.75 39.94 11.91 40.14 12.31C40.24 12.5 40.26 12.73 40.19 12.94C40.12 13.15 39.97 13.32 39.77 13.42C37.66 14.5 35.48 18 35.53 20.22C35.5 20.51 35.55 20.76 35.67 20.99C35.79 21.22 35.97 21.4 36.2 21.51C36.52 21.68 36.69 22.05 36.61 22.4C36.53 22.75 36.22 23.01 35.86 23.03L35.85 23.02ZM39.41 12.36C39.41 12.36 39.32 12.37 39.27 12.39C36.76 13.65 34.36 17.53 34.41 20.21C34.38 20.69 34.49 21.15 34.73 21.56C34.96 21.96 35.31 22.28 35.72 22.49C35.75 22.5 35.79 22.51 35.83 22.51C35.96 22.51 36.08 22.4 36.11 22.27C36.14 22.14 36.08 22 35.95 21.93C35.64 21.77 35.38 21.52 35.21 21.2C35.04 20.88 34.97 20.53 35.02 20.18C34.97 17.79 37.24 14.13 39.53 12.96C39.61 12.92 39.67 12.85 39.7 12.77C39.73 12.69 39.72 12.6 39.68 12.52C39.62 12.41 39.51 12.35 39.4 12.35L39.41 12.36Z" fill="#3D6D4A"/>
<path d="M32.27 21.01C32.15 21.01 32.04 20.97 31.94 20.9C29.43 19.07 29.15 16.55 30.93 12.71C32.98 8.37999 40.95 7.29999 41.29 7.25999C41.44 7.23999 41.59 7.27999 41.7 7.36999C41.82 7.45999 41.89 7.59999 41.91 7.73999C41.95 8.03999 41.74 8.31999 41.43 8.36999C41.35 8.36999 33.72 9.41999 31.93 13.18C29.97 17.32 31.09 18.9 32.58 19.99C32.77 20.13 32.85 20.38 32.78 20.61C32.71 20.84 32.49 20.99 32.25 20.99L32.27 21.01Z" fill="#3D6D4A"/>
<path d="M32.2599 21.26C32.0899 21.26 31.93 21.21 31.79 21.1C29.19 19.2 28.8499 16.58 30.7099 12.61C32.7599 8.26999 40.3999 7.12999 41.2599 7.00999C41.4699 6.98999 41.6899 7.03999 41.86 7.16999C42.03 7.29999 42.1399 7.49999 42.1699 7.70999C42.2299 8.13999 41.9199 8.54999 41.4799 8.60999C41.3899 8.60999 33.9 9.62999 32.1699 13.28C30.2899 17.25 31.3399 18.75 32.7499 19.78C33.0299 19.99 33.14 20.35 33.04 20.68C32.97 20.89 32.83 21.05 32.65 21.14L32.7 21.23H32.28L32.2599 21.26ZM41.36 7.51999C41.36 7.51999 41.3299 7.51999 41.3199 7.51999C40.9899 7.55999 33.1299 8.65999 31.1599 12.83C29.3999 16.6 29.6799 18.95 32.0899 20.71C32.1199 20.73 32.16 20.75 32.19 20.76H32.2599C32.3899 20.76 32.5099 20.67 32.5499 20.55C32.5899 20.42 32.55 20.29 32.44 20.21C30.94 19.11 29.6699 17.41 31.7099 13.1C33.5599 9.20999 41.3499 8.14999 41.4199 8.13999C41.5699 8.11999 41.6799 7.95999 41.6599 7.79999C41.6599 7.71999 41.61 7.63999 41.54 7.58999C41.49 7.54999 41.4199 7.52999 41.3499 7.52999L41.36 7.51999Z" fill="#3D6D4A"/>
<path d="M41.13 21.29C40.85 21.29 40.62 21.1 40.57 20.82C40.52 20.55 40.68 20.28 40.95 20.2C42.63 19.61 43.7 18.67 44.19 17.41C45.15 14.95 43.6 12.02 43.58 11.99C43.43 11.72 43.54 11.38 43.81 11.23C44.08 11.08 44.42 11.19 44.57 11.46C44.64 11.6 46.37 14.88 45.23 17.81C44.62 19.39 43.3 20.55 41.32 21.25C41.26 21.27 41.2 21.29 41.13 21.29Z" fill="#3D6D4A"/>
<path d="M41.12 21.54C40.72 21.54 40.39 21.26 40.32 20.87C40.25 20.48 40.49 20.09 40.86 19.97C42.44 19.42 43.48 18.53 43.95 17.32C44.86 14.99 43.37 12.14 43.36 12.11C43.26 11.92 43.23 11.7 43.3 11.49C43.36 11.28 43.5 11.11 43.69 11.01C43.88 10.91 44.1 10.89 44.31 10.95C44.52 11.01 44.69 11.15 44.79 11.34C44.98 11.71 46.6 14.97 45.47 17.9C44.83 19.56 43.46 20.76 41.41 21.49C41.33 21.52 41.24 21.54 41.14 21.54H41.12ZM44.07 11.41C44.02 11.41 43.97 11.42 43.92 11.45C43.85 11.49 43.79 11.56 43.77 11.64C43.75 11.72 43.75 11.8 43.79 11.88C43.8 11.9 45.42 14.92 44.41 17.51C43.89 18.85 42.75 19.84 41.02 20.45C40.87 20.5 40.78 20.65 40.81 20.8C40.84 20.95 40.96 21.06 41.11 21.06C41.13 21.06 41.18 21.06 41.22 21.04C43.13 20.36 44.4 19.25 44.99 17.74C46.04 15.02 44.52 11.94 44.34 11.6C44.3 11.52 44.23 11.47 44.15 11.45C44.12 11.45 44.09 11.44 44.06 11.44L44.07 11.41Z" fill="#3D6D4A"/>
</g>
<defs>
<clipPath id="clip0_14302_729">
<rect width="56" height="56" fill="white" transform="translate(0.5)"/>
</clipPath>
</defs>
</svg>
