<svg width="57" height="56" viewBox="0 0 57 56" fill="none" xmlns="http://www.w3.org/2000/svg">
<path d="M45.19 51.49C41.98 51.49 39.53 50.52 37.91 48.61C36.53 46.98 35.8 44.67 35.8 41.92C35.8 38.61 36.87 34.78 38.67 31.66C40.56 28.38 42.88 26.49 45.02 26.49C47.19 26.49 49.55 28.41 51.5 31.75C53.35 34.93 54.46 38.81 54.46 42.14C54.46 44.83 53.74 47.1 52.37 48.69C50.77 50.55 48.36 51.5 45.19 51.5V51.49ZM45.02 27.51C41.27 27.51 36.82 35.32 36.82 41.92C36.82 44.42 37.47 46.5 38.69 47.95C40.11 49.62 42.3 50.47 45.19 50.47C52.36 50.47 53.43 45.25 53.43 42.14C53.43 38.99 52.38 35.3 50.61 32.27C48.88 29.29 46.78 27.52 45.02 27.52V27.51Z" fill="#3D6D4A"/>
<path d="M45.19 51.61C41.94 51.61 39.46 50.63 37.81 48.68C36.41 47.03 35.67 44.69 35.67 41.91C35.67 38.58 36.75 34.72 38.55 31.59C40.46 28.27 42.82 26.36 45.01 26.36C47.22 26.36 49.62 28.3 51.59 31.68C53.45 34.88 54.57 38.79 54.57 42.13C54.57 44.85 53.84 47.14 52.45 48.76C50.83 50.65 48.38 51.61 45.18 51.61H45.19ZM45.02 26.61C42.92 26.61 40.64 28.47 38.78 31.72C37 34.82 35.93 38.63 35.93 41.92C35.93 44.64 36.65 46.92 38.01 48.53C39.61 50.41 42.02 51.37 45.19 51.37C48.36 51.37 50.7 50.44 52.27 48.61C53.61 47.04 54.33 44.81 54.33 42.15C54.33 38.85 53.23 34.99 51.39 31.82C49.47 28.52 47.15 26.62 45.02 26.62V26.61ZM45.19 50.59C42.26 50.59 40.04 49.73 38.59 48.02C37.35 46.55 36.69 44.44 36.69 41.91C36.69 35.25 41.2 27.37 45.01 27.37C46.82 27.37 48.95 29.17 50.71 32.19C52.49 35.24 53.55 38.95 53.55 42.13C53.55 45.31 52.46 50.59 45.18 50.59H45.19ZM45.02 27.63C41.32 27.63 36.95 35.37 36.95 41.92C36.95 44.39 37.59 46.45 38.79 47.87C40.18 49.51 42.34 50.35 45.2 50.35C52.26 50.35 53.32 45.21 53.32 42.14C53.32 39.07 52.27 35.34 50.52 32.33C48.81 29.39 46.76 27.64 45.03 27.64L45.02 27.63Z" fill="#3D6D4A"/>
<path d="M43.83 48.62C43.55 48.62 43.32 48.39 43.32 48.11C43.32 47.83 43.55 47.6 43.83 47.6C46.19 47.6 47.95 46.91 49.06 45.54C50.41 43.88 50.8 41.23 50.15 38.09C50.09 37.81 50.27 37.54 50.55 37.49C50.83 37.43 51.1 37.61 51.15 37.89C51.86 41.34 51.4 44.28 49.85 46.19C48.53 47.81 46.51 48.63 43.83 48.63V48.62Z" fill="#3D6D4A"/>
<path d="M43.83 48.75C43.48 48.75 43.2 48.46 43.2 48.11C43.2 47.76 43.48 47.48 43.83 47.48C46.15 47.48 47.88 46.8 48.97 45.46C50.3 43.83 50.68 41.22 50.03 38.12C50 37.95 50.03 37.78 50.12 37.64C50.21 37.5 50.36 37.4 50.52 37.37C50.86 37.3 51.2 37.52 51.27 37.86C51.99 41.34 51.52 44.33 49.95 46.26C48.61 47.91 46.55 48.75 43.83 48.75ZM50.65 37.6C50.65 37.6 50.6 37.6 50.57 37.6C50.47 37.62 50.38 37.68 50.33 37.77C50.27 37.86 50.25 37.96 50.27 38.06C50.93 41.24 50.53 43.92 49.15 45.61C48.01 47.01 46.22 47.72 43.82 47.72C43.61 47.72 43.44 47.89 43.44 48.1C43.44 48.31 43.61 48.49 43.82 48.49C46.46 48.49 48.45 47.68 49.75 46.1C51.28 44.23 51.73 41.32 51.02 37.91C50.98 37.73 50.82 37.6 50.64 37.6H50.65Z" fill="#3D6D4A"/>
<path d="M33.98 17.4C33.98 17.3 33.95 17.21 33.92 17.12C33.88 17.03 33.82 16.94 33.75 16.87L27.88 11.18V6.72C27.88 6.1 27.63 5.51 27.19 5.07C26.75 4.63 26.15 4.39 25.53 4.39H10.61C9.98998 4.39 9.39998 4.63 8.95998 5.07C8.51998 5.51 8.26998 6.1 8.26998 6.72V11.02L2.62998 16.87C2.55998 16.94 2.50998 17.02 2.46998 17.11C2.43998 17.19 2.42998 17.28 2.41998 17.37V49.16C2.41998 49.77 2.66998 50.36 3.09998 50.8C3.52998 51.24 4.11998 51.48 4.72998 51.49H31.65C32.27 51.49 32.86 51.24 33.29 50.8C33.73 50.36 33.97 49.77 33.98 49.16V17.4ZM9.39998 12.11H25.13L20.78 16.63H5.01998L9.38998 12.11H9.39998ZM27 12.44L31.32 16.64H22.94L27.01 12.44H27ZM9.82998 6.72C9.82998 6.29 10.18 5.94 10.61 5.94H25.53C25.96 5.94 26.31 6.29 26.31 6.72V10.55H9.82998V6.72ZM3.96998 49.16V18.18H20.19V49.93H4.73998C4.31998 49.93 3.97998 49.58 3.96998 49.16ZM32.44 49.16C32.44 49.59 32.08 49.93 31.65 49.93H21.87V18.18H32.41L32.43 49.15L32.44 49.16Z" fill="#3D6D4A"/>
<path d="M16.17 31.43L12.15 26.38C12 26.21 11.78 26.12 11.55 26.12C11.32 26.12 11.11 26.22 10.95 26.38L6.92995 31.42C6.70995 31.7 6.70995 32.1 6.92995 32.38L10.95 37.43C11.1 37.62 11.32 37.72 11.56 37.72C11.8 37.72 12.02 37.61 12.17 37.43L16.19 32.39C16.41 32.1 16.4 31.7 16.16 31.43H16.17ZM11.54 35.7L8.51995 31.91L11.54 28.12L14.58 31.91L11.54 35.7Z" fill="#3D6D4A"/>
</svg>
